%TF.GenerationSoftware,KiCad,Pcbnew,5.99.0-unknown-912657dd23~106~ubuntu20.04.1*%
%TF.CreationDate,2021-01-03T01:57:45+03:00*%
%TF.ProjectId,CM4_2,434d345f-322e-46b6-9963-61645f706362,rev?*%
%TF.SameCoordinates,PX1ce88340PY15c17540*%
%TF.FileFunction,Legend,Bot*%
%TF.FilePolarity,Positive*%
%FSLAX46Y46*%
G04 Gerber Fmt 4.6, Leading zero omitted, Abs format (unit mm)*
G04 Created by KiCad (PCBNEW 5.99.0-unknown-912657dd23~106~ubuntu20.04.1) date 2021-01-03 01:57:45*
%MOMM*%
%LPD*%
G01*
G04 APERTURE LIST*
%ADD10C,0.100000*%
%ADD11C,0.150000*%
%ADD12C,0.300000*%
%ADD13C,0.400000*%
%ADD14C,0.125000*%
%ADD15C,0.120000*%
G04 APERTURE END LIST*
D10*
D11*
X583999400Y-431994000D02*
X583999400Y-463994000D01*
X691999400Y-463994000D01*
X691999400Y-431994000D01*
X583999400Y-431994000D01*
D10*
D11*
X-475000000Y355000000D02*
X-475000000Y-465994000D01*
X693999400Y-465994000D01*
X693999400Y355000000D01*
X-475000000Y355000000D01*
D10*
D11*
X-473000000Y353000000D02*
X-473000000Y-463994000D01*
X691999400Y-463994000D01*
X691999400Y353000000D01*
X-473000000Y353000000D01*
D10*
D11*
X-425000000Y353000000D02*
X-425000000Y355000000D01*
D10*
D11*
X-375000000Y353000000D02*
X-375000000Y355000000D01*
D10*
D11*
X-325000000Y353000000D02*
X-325000000Y355000000D01*
D10*
D11*
X-275000000Y353000000D02*
X-275000000Y355000000D01*
D10*
D11*
X-225000000Y353000000D02*
X-225000000Y355000000D01*
D10*
D11*
X-175000000Y353000000D02*
X-175000000Y355000000D01*
D10*
D11*
X-125000000Y353000000D02*
X-125000000Y355000000D01*
D10*
D11*
X-75000000Y353000000D02*
X-75000000Y355000000D01*
D10*
D11*
X-25000000Y353000000D02*
X-25000000Y355000000D01*
D10*
D11*
X25000000Y353000000D02*
X25000000Y355000000D01*
D10*
D11*
X75000000Y353000000D02*
X75000000Y355000000D01*
D10*
D11*
X125000000Y353000000D02*
X125000000Y355000000D01*
D10*
D11*
X175000000Y353000000D02*
X175000000Y355000000D01*
D10*
D11*
X225000000Y353000000D02*
X225000000Y355000000D01*
D10*
D11*
X275000000Y353000000D02*
X275000000Y355000000D01*
D10*
D11*
X325000000Y353000000D02*
X325000000Y355000000D01*
D10*
D11*
X375000000Y353000000D02*
X375000000Y355000000D01*
D10*
D11*
X425000000Y353000000D02*
X425000000Y355000000D01*
D10*
D11*
X475000000Y353000000D02*
X475000000Y355000000D01*
D10*
D11*
X525000000Y353000000D02*
X525000000Y355000000D01*
D10*
D11*
X575000000Y353000000D02*
X575000000Y355000000D01*
D10*
D11*
X625000000Y353000000D02*
X625000000Y355000000D01*
D10*
D11*
X675000000Y353000000D02*
X675000000Y355000000D01*
D10*
D11*
X-448934524Y353411905D02*
X-449677381Y353411905D01*
X-449305953Y353411905D02*
X-449305953Y354711905D01*
X-449429762Y354526191D01*
X-449553572Y354402381D01*
X-449677381Y354340477D01*
D10*
D11*
X-399677381Y354588096D02*
X-399615477Y354650000D01*
X-399491667Y354711905D01*
X-399182143Y354711905D01*
X-399058334Y354650000D01*
X-398996429Y354588096D01*
X-398934524Y354464286D01*
X-398934524Y354340477D01*
X-398996429Y354154762D01*
X-399739286Y353411905D01*
X-398934524Y353411905D01*
D10*
D11*
X-349739286Y354711905D02*
X-348934524Y354711905D01*
X-349367858Y354216667D01*
X-349182143Y354216667D01*
X-349058334Y354154762D01*
X-348996429Y354092858D01*
X-348934524Y353969048D01*
X-348934524Y353659524D01*
X-348996429Y353535715D01*
X-349058334Y353473810D01*
X-349182143Y353411905D01*
X-349553572Y353411905D01*
X-349677381Y353473810D01*
X-349739286Y353535715D01*
D10*
D11*
X-299058334Y354278572D02*
X-299058334Y353411905D01*
X-299367858Y354773810D02*
X-299677381Y353845239D01*
X-298872620Y353845239D01*
D10*
D11*
X-248996429Y354711905D02*
X-249615477Y354711905D01*
X-249677381Y354092858D01*
X-249615477Y354154762D01*
X-249491667Y354216667D01*
X-249182143Y354216667D01*
X-249058334Y354154762D01*
X-248996429Y354092858D01*
X-248934524Y353969048D01*
X-248934524Y353659524D01*
X-248996429Y353535715D01*
X-249058334Y353473810D01*
X-249182143Y353411905D01*
X-249491667Y353411905D01*
X-249615477Y353473810D01*
X-249677381Y353535715D01*
D10*
D11*
X-199058334Y354711905D02*
X-199305953Y354711905D01*
X-199429762Y354650000D01*
X-199491667Y354588096D01*
X-199615477Y354402381D01*
X-199677381Y354154762D01*
X-199677381Y353659524D01*
X-199615477Y353535715D01*
X-199553572Y353473810D01*
X-199429762Y353411905D01*
X-199182143Y353411905D01*
X-199058334Y353473810D01*
X-198996429Y353535715D01*
X-198934524Y353659524D01*
X-198934524Y353969048D01*
X-198996429Y354092858D01*
X-199058334Y354154762D01*
X-199182143Y354216667D01*
X-199429762Y354216667D01*
X-199553572Y354154762D01*
X-199615477Y354092858D01*
X-199677381Y353969048D01*
D10*
D11*
X-149739286Y354711905D02*
X-148872620Y354711905D01*
X-149429762Y353411905D01*
D10*
D11*
X-99429762Y354154762D02*
X-99553572Y354216667D01*
X-99615477Y354278572D01*
X-99677381Y354402381D01*
X-99677381Y354464286D01*
X-99615477Y354588096D01*
X-99553572Y354650000D01*
X-99429762Y354711905D01*
X-99182143Y354711905D01*
X-99058334Y354650000D01*
X-98996429Y354588096D01*
X-98934524Y354464286D01*
X-98934524Y354402381D01*
X-98996429Y354278572D01*
X-99058334Y354216667D01*
X-99182143Y354154762D01*
X-99429762Y354154762D01*
X-99553572Y354092858D01*
X-99615477Y354030953D01*
X-99677381Y353907143D01*
X-99677381Y353659524D01*
X-99615477Y353535715D01*
X-99553572Y353473810D01*
X-99429762Y353411905D01*
X-99182143Y353411905D01*
X-99058334Y353473810D01*
X-98996429Y353535715D01*
X-98934524Y353659524D01*
X-98934524Y353907143D01*
X-98996429Y354030953D01*
X-99058334Y354092858D01*
X-99182143Y354154762D01*
D10*
D11*
X-49553572Y353411905D02*
X-49305953Y353411905D01*
X-49182143Y353473810D01*
X-49120239Y353535715D01*
X-48996429Y353721429D01*
X-48934524Y353969048D01*
X-48934524Y354464286D01*
X-48996429Y354588096D01*
X-49058334Y354650000D01*
X-49182143Y354711905D01*
X-49429762Y354711905D01*
X-49553572Y354650000D01*
X-49615477Y354588096D01*
X-49677381Y354464286D01*
X-49677381Y354154762D01*
X-49615477Y354030953D01*
X-49553572Y353969048D01*
X-49429762Y353907143D01*
X-49182143Y353907143D01*
X-49058334Y353969048D01*
X-48996429Y354030953D01*
X-48934524Y354154762D01*
D10*
D11*
X1065476Y353411905D02*
X322619Y353411905D01*
X694047Y353411905D02*
X694047Y354711905D01*
X570238Y354526191D01*
X446428Y354402381D01*
X322619Y354340477D01*
X1870238Y354711905D02*
X1994047Y354711905D01*
X2117857Y354650000D01*
X2179761Y354588096D01*
X2241666Y354464286D01*
X2303571Y354216667D01*
X2303571Y353907143D01*
X2241666Y353659524D01*
X2179761Y353535715D01*
X2117857Y353473810D01*
X1994047Y353411905D01*
X1870238Y353411905D01*
X1746428Y353473810D01*
X1684523Y353535715D01*
X1622619Y353659524D01*
X1560714Y353907143D01*
X1560714Y354216667D01*
X1622619Y354464286D01*
X1684523Y354588096D01*
X1746428Y354650000D01*
X1870238Y354711905D01*
D10*
D11*
X51065476Y353411905D02*
X50322619Y353411905D01*
X50694047Y353411905D02*
X50694047Y354711905D01*
X50570238Y354526191D01*
X50446428Y354402381D01*
X50322619Y354340477D01*
X52303571Y353411905D02*
X51560714Y353411905D01*
X51932142Y353411905D02*
X51932142Y354711905D01*
X51808333Y354526191D01*
X51684523Y354402381D01*
X51560714Y354340477D01*
D10*
D11*
X101065476Y353411905D02*
X100322619Y353411905D01*
X100694047Y353411905D02*
X100694047Y354711905D01*
X100570238Y354526191D01*
X100446428Y354402381D01*
X100322619Y354340477D01*
X101560714Y354588096D02*
X101622619Y354650000D01*
X101746428Y354711905D01*
X102055952Y354711905D01*
X102179761Y354650000D01*
X102241666Y354588096D01*
X102303571Y354464286D01*
X102303571Y354340477D01*
X102241666Y354154762D01*
X101498809Y353411905D01*
X102303571Y353411905D01*
D10*
D11*
X151065476Y353411905D02*
X150322619Y353411905D01*
X150694047Y353411905D02*
X150694047Y354711905D01*
X150570238Y354526191D01*
X150446428Y354402381D01*
X150322619Y354340477D01*
X151498809Y354711905D02*
X152303571Y354711905D01*
X151870238Y354216667D01*
X152055952Y354216667D01*
X152179761Y354154762D01*
X152241666Y354092858D01*
X152303571Y353969048D01*
X152303571Y353659524D01*
X152241666Y353535715D01*
X152179761Y353473810D01*
X152055952Y353411905D01*
X151684523Y353411905D01*
X151560714Y353473810D01*
X151498809Y353535715D01*
D10*
D11*
X201065476Y353411905D02*
X200322619Y353411905D01*
X200694047Y353411905D02*
X200694047Y354711905D01*
X200570238Y354526191D01*
X200446428Y354402381D01*
X200322619Y354340477D01*
X202179761Y354278572D02*
X202179761Y353411905D01*
X201870238Y354773810D02*
X201560714Y353845239D01*
X202365476Y353845239D01*
D10*
D11*
X251065476Y353411905D02*
X250322619Y353411905D01*
X250694047Y353411905D02*
X250694047Y354711905D01*
X250570238Y354526191D01*
X250446428Y354402381D01*
X250322619Y354340477D01*
X252241666Y354711905D02*
X251622619Y354711905D01*
X251560714Y354092858D01*
X251622619Y354154762D01*
X251746428Y354216667D01*
X252055952Y354216667D01*
X252179761Y354154762D01*
X252241666Y354092858D01*
X252303571Y353969048D01*
X252303571Y353659524D01*
X252241666Y353535715D01*
X252179761Y353473810D01*
X252055952Y353411905D01*
X251746428Y353411905D01*
X251622619Y353473810D01*
X251560714Y353535715D01*
D10*
D11*
X301065476Y353411905D02*
X300322619Y353411905D01*
X300694047Y353411905D02*
X300694047Y354711905D01*
X300570238Y354526191D01*
X300446428Y354402381D01*
X300322619Y354340477D01*
X302179761Y354711905D02*
X301932142Y354711905D01*
X301808333Y354650000D01*
X301746428Y354588096D01*
X301622619Y354402381D01*
X301560714Y354154762D01*
X301560714Y353659524D01*
X301622619Y353535715D01*
X301684523Y353473810D01*
X301808333Y353411905D01*
X302055952Y353411905D01*
X302179761Y353473810D01*
X302241666Y353535715D01*
X302303571Y353659524D01*
X302303571Y353969048D01*
X302241666Y354092858D01*
X302179761Y354154762D01*
X302055952Y354216667D01*
X301808333Y354216667D01*
X301684523Y354154762D01*
X301622619Y354092858D01*
X301560714Y353969048D01*
D10*
D11*
X351065476Y353411905D02*
X350322619Y353411905D01*
X350694047Y353411905D02*
X350694047Y354711905D01*
X350570238Y354526191D01*
X350446428Y354402381D01*
X350322619Y354340477D01*
X351498809Y354711905D02*
X352365476Y354711905D01*
X351808333Y353411905D01*
D10*
D11*
X401065476Y353411905D02*
X400322619Y353411905D01*
X400694047Y353411905D02*
X400694047Y354711905D01*
X400570238Y354526191D01*
X400446428Y354402381D01*
X400322619Y354340477D01*
X401808333Y354154762D02*
X401684523Y354216667D01*
X401622619Y354278572D01*
X401560714Y354402381D01*
X401560714Y354464286D01*
X401622619Y354588096D01*
X401684523Y354650000D01*
X401808333Y354711905D01*
X402055952Y354711905D01*
X402179761Y354650000D01*
X402241666Y354588096D01*
X402303571Y354464286D01*
X402303571Y354402381D01*
X402241666Y354278572D01*
X402179761Y354216667D01*
X402055952Y354154762D01*
X401808333Y354154762D01*
X401684523Y354092858D01*
X401622619Y354030953D01*
X401560714Y353907143D01*
X401560714Y353659524D01*
X401622619Y353535715D01*
X401684523Y353473810D01*
X401808333Y353411905D01*
X402055952Y353411905D01*
X402179761Y353473810D01*
X402241666Y353535715D01*
X402303571Y353659524D01*
X402303571Y353907143D01*
X402241666Y354030953D01*
X402179761Y354092858D01*
X402055952Y354154762D01*
D10*
D11*
X451065476Y353411905D02*
X450322619Y353411905D01*
X450694047Y353411905D02*
X450694047Y354711905D01*
X450570238Y354526191D01*
X450446428Y354402381D01*
X450322619Y354340477D01*
X451684523Y353411905D02*
X451932142Y353411905D01*
X452055952Y353473810D01*
X452117857Y353535715D01*
X452241666Y353721429D01*
X452303571Y353969048D01*
X452303571Y354464286D01*
X452241666Y354588096D01*
X452179761Y354650000D01*
X452055952Y354711905D01*
X451808333Y354711905D01*
X451684523Y354650000D01*
X451622619Y354588096D01*
X451560714Y354464286D01*
X451560714Y354154762D01*
X451622619Y354030953D01*
X451684523Y353969048D01*
X451808333Y353907143D01*
X452055952Y353907143D01*
X452179761Y353969048D01*
X452241666Y354030953D01*
X452303571Y354154762D01*
D10*
D11*
X500322619Y354588096D02*
X500384523Y354650000D01*
X500508333Y354711905D01*
X500817857Y354711905D01*
X500941666Y354650000D01*
X501003571Y354588096D01*
X501065476Y354464286D01*
X501065476Y354340477D01*
X501003571Y354154762D01*
X500260714Y353411905D01*
X501065476Y353411905D01*
X501870238Y354711905D02*
X501994047Y354711905D01*
X502117857Y354650000D01*
X502179761Y354588096D01*
X502241666Y354464286D01*
X502303571Y354216667D01*
X502303571Y353907143D01*
X502241666Y353659524D01*
X502179761Y353535715D01*
X502117857Y353473810D01*
X501994047Y353411905D01*
X501870238Y353411905D01*
X501746428Y353473810D01*
X501684523Y353535715D01*
X501622619Y353659524D01*
X501560714Y353907143D01*
X501560714Y354216667D01*
X501622619Y354464286D01*
X501684523Y354588096D01*
X501746428Y354650000D01*
X501870238Y354711905D01*
D10*
D11*
X550322619Y354588096D02*
X550384523Y354650000D01*
X550508333Y354711905D01*
X550817857Y354711905D01*
X550941666Y354650000D01*
X551003571Y354588096D01*
X551065476Y354464286D01*
X551065476Y354340477D01*
X551003571Y354154762D01*
X550260714Y353411905D01*
X551065476Y353411905D01*
X552303571Y353411905D02*
X551560714Y353411905D01*
X551932142Y353411905D02*
X551932142Y354711905D01*
X551808333Y354526191D01*
X551684523Y354402381D01*
X551560714Y354340477D01*
D10*
D11*
X600322619Y354588096D02*
X600384523Y354650000D01*
X600508333Y354711905D01*
X600817857Y354711905D01*
X600941666Y354650000D01*
X601003571Y354588096D01*
X601065476Y354464286D01*
X601065476Y354340477D01*
X601003571Y354154762D01*
X600260714Y353411905D01*
X601065476Y353411905D01*
X601560714Y354588096D02*
X601622619Y354650000D01*
X601746428Y354711905D01*
X602055952Y354711905D01*
X602179761Y354650000D01*
X602241666Y354588096D01*
X602303571Y354464286D01*
X602303571Y354340477D01*
X602241666Y354154762D01*
X601498809Y353411905D01*
X602303571Y353411905D01*
D10*
D11*
X650322619Y354588096D02*
X650384523Y354650000D01*
X650508333Y354711905D01*
X650817857Y354711905D01*
X650941666Y354650000D01*
X651003571Y354588096D01*
X651065476Y354464286D01*
X651065476Y354340477D01*
X651003571Y354154762D01*
X650260714Y353411905D01*
X651065476Y353411905D01*
X651498809Y354711905D02*
X652303571Y354711905D01*
X651870238Y354216667D01*
X652055952Y354216667D01*
X652179761Y354154762D01*
X652241666Y354092858D01*
X652303571Y353969048D01*
X652303571Y353659524D01*
X652241666Y353535715D01*
X652179761Y353473810D01*
X652055952Y353411905D01*
X651684523Y353411905D01*
X651560714Y353473810D01*
X651498809Y353535715D01*
D10*
D11*
X-425000000Y-463994000D02*
X-425000000Y-465994000D01*
D10*
D11*
X-375000000Y-463994000D02*
X-375000000Y-465994000D01*
D10*
D11*
X-325000000Y-463994000D02*
X-325000000Y-465994000D01*
D10*
D11*
X-275000000Y-463994000D02*
X-275000000Y-465994000D01*
D10*
D11*
X-225000000Y-463994000D02*
X-225000000Y-465994000D01*
D10*
D11*
X-175000000Y-463994000D02*
X-175000000Y-465994000D01*
D10*
D11*
X-125000000Y-463994000D02*
X-125000000Y-465994000D01*
D10*
D11*
X-75000000Y-463994000D02*
X-75000000Y-465994000D01*
D10*
D11*
X-25000000Y-463994000D02*
X-25000000Y-465994000D01*
D10*
D11*
X25000000Y-463994000D02*
X25000000Y-465994000D01*
D10*
D11*
X75000000Y-463994000D02*
X75000000Y-465994000D01*
D10*
D11*
X125000000Y-463994000D02*
X125000000Y-465994000D01*
D10*
D11*
X175000000Y-463994000D02*
X175000000Y-465994000D01*
D10*
D11*
X225000000Y-463994000D02*
X225000000Y-465994000D01*
D10*
D11*
X275000000Y-463994000D02*
X275000000Y-465994000D01*
D10*
D11*
X325000000Y-463994000D02*
X325000000Y-465994000D01*
D10*
D11*
X375000000Y-463994000D02*
X375000000Y-465994000D01*
D10*
D11*
X425000000Y-463994000D02*
X425000000Y-465994000D01*
D10*
D11*
X475000000Y-463994000D02*
X475000000Y-465994000D01*
D10*
D11*
X525000000Y-463994000D02*
X525000000Y-465994000D01*
D10*
D11*
X575000000Y-463994000D02*
X575000000Y-465994000D01*
D10*
D11*
X625000000Y-463994000D02*
X625000000Y-465994000D01*
D10*
D11*
X675000000Y-463994000D02*
X675000000Y-465994000D01*
D10*
D11*
X-448934524Y-465582095D02*
X-449677381Y-465582095D01*
X-449305953Y-465582095D02*
X-449305953Y-464282095D01*
X-449429762Y-464467809D01*
X-449553572Y-464591619D01*
X-449677381Y-464653523D01*
D10*
D11*
X-399677381Y-464405904D02*
X-399615477Y-464344000D01*
X-399491667Y-464282095D01*
X-399182143Y-464282095D01*
X-399058334Y-464344000D01*
X-398996429Y-464405904D01*
X-398934524Y-464529714D01*
X-398934524Y-464653523D01*
X-398996429Y-464839238D01*
X-399739286Y-465582095D01*
X-398934524Y-465582095D01*
D10*
D11*
X-349739286Y-464282095D02*
X-348934524Y-464282095D01*
X-349367858Y-464777333D01*
X-349182143Y-464777333D01*
X-349058334Y-464839238D01*
X-348996429Y-464901142D01*
X-348934524Y-465024952D01*
X-348934524Y-465334476D01*
X-348996429Y-465458285D01*
X-349058334Y-465520190D01*
X-349182143Y-465582095D01*
X-349553572Y-465582095D01*
X-349677381Y-465520190D01*
X-349739286Y-465458285D01*
D10*
D11*
X-299058334Y-464715428D02*
X-299058334Y-465582095D01*
X-299367858Y-464220190D02*
X-299677381Y-465148761D01*
X-298872620Y-465148761D01*
D10*
D11*
X-248996429Y-464282095D02*
X-249615477Y-464282095D01*
X-249677381Y-464901142D01*
X-249615477Y-464839238D01*
X-249491667Y-464777333D01*
X-249182143Y-464777333D01*
X-249058334Y-464839238D01*
X-248996429Y-464901142D01*
X-248934524Y-465024952D01*
X-248934524Y-465334476D01*
X-248996429Y-465458285D01*
X-249058334Y-465520190D01*
X-249182143Y-465582095D01*
X-249491667Y-465582095D01*
X-249615477Y-465520190D01*
X-249677381Y-465458285D01*
D10*
D11*
X-199058334Y-464282095D02*
X-199305953Y-464282095D01*
X-199429762Y-464344000D01*
X-199491667Y-464405904D01*
X-199615477Y-464591619D01*
X-199677381Y-464839238D01*
X-199677381Y-465334476D01*
X-199615477Y-465458285D01*
X-199553572Y-465520190D01*
X-199429762Y-465582095D01*
X-199182143Y-465582095D01*
X-199058334Y-465520190D01*
X-198996429Y-465458285D01*
X-198934524Y-465334476D01*
X-198934524Y-465024952D01*
X-198996429Y-464901142D01*
X-199058334Y-464839238D01*
X-199182143Y-464777333D01*
X-199429762Y-464777333D01*
X-199553572Y-464839238D01*
X-199615477Y-464901142D01*
X-199677381Y-465024952D01*
D10*
D11*
X-149739286Y-464282095D02*
X-148872620Y-464282095D01*
X-149429762Y-465582095D01*
D10*
D11*
X-99429762Y-464839238D02*
X-99553572Y-464777333D01*
X-99615477Y-464715428D01*
X-99677381Y-464591619D01*
X-99677381Y-464529714D01*
X-99615477Y-464405904D01*
X-99553572Y-464344000D01*
X-99429762Y-464282095D01*
X-99182143Y-464282095D01*
X-99058334Y-464344000D01*
X-98996429Y-464405904D01*
X-98934524Y-464529714D01*
X-98934524Y-464591619D01*
X-98996429Y-464715428D01*
X-99058334Y-464777333D01*
X-99182143Y-464839238D01*
X-99429762Y-464839238D01*
X-99553572Y-464901142D01*
X-99615477Y-464963047D01*
X-99677381Y-465086857D01*
X-99677381Y-465334476D01*
X-99615477Y-465458285D01*
X-99553572Y-465520190D01*
X-99429762Y-465582095D01*
X-99182143Y-465582095D01*
X-99058334Y-465520190D01*
X-98996429Y-465458285D01*
X-98934524Y-465334476D01*
X-98934524Y-465086857D01*
X-98996429Y-464963047D01*
X-99058334Y-464901142D01*
X-99182143Y-464839238D01*
D10*
D11*
X-49553572Y-465582095D02*
X-49305953Y-465582095D01*
X-49182143Y-465520190D01*
X-49120239Y-465458285D01*
X-48996429Y-465272571D01*
X-48934524Y-465024952D01*
X-48934524Y-464529714D01*
X-48996429Y-464405904D01*
X-49058334Y-464344000D01*
X-49182143Y-464282095D01*
X-49429762Y-464282095D01*
X-49553572Y-464344000D01*
X-49615477Y-464405904D01*
X-49677381Y-464529714D01*
X-49677381Y-464839238D01*
X-49615477Y-464963047D01*
X-49553572Y-465024952D01*
X-49429762Y-465086857D01*
X-49182143Y-465086857D01*
X-49058334Y-465024952D01*
X-48996429Y-464963047D01*
X-48934524Y-464839238D01*
D10*
D11*
X1065476Y-465582095D02*
X322619Y-465582095D01*
X694047Y-465582095D02*
X694047Y-464282095D01*
X570238Y-464467809D01*
X446428Y-464591619D01*
X322619Y-464653523D01*
X1870238Y-464282095D02*
X1994047Y-464282095D01*
X2117857Y-464344000D01*
X2179761Y-464405904D01*
X2241666Y-464529714D01*
X2303571Y-464777333D01*
X2303571Y-465086857D01*
X2241666Y-465334476D01*
X2179761Y-465458285D01*
X2117857Y-465520190D01*
X1994047Y-465582095D01*
X1870238Y-465582095D01*
X1746428Y-465520190D01*
X1684523Y-465458285D01*
X1622619Y-465334476D01*
X1560714Y-465086857D01*
X1560714Y-464777333D01*
X1622619Y-464529714D01*
X1684523Y-464405904D01*
X1746428Y-464344000D01*
X1870238Y-464282095D01*
D10*
D11*
X51065476Y-465582095D02*
X50322619Y-465582095D01*
X50694047Y-465582095D02*
X50694047Y-464282095D01*
X50570238Y-464467809D01*
X50446428Y-464591619D01*
X50322619Y-464653523D01*
X52303571Y-465582095D02*
X51560714Y-465582095D01*
X51932142Y-465582095D02*
X51932142Y-464282095D01*
X51808333Y-464467809D01*
X51684523Y-464591619D01*
X51560714Y-464653523D01*
D10*
D11*
X101065476Y-465582095D02*
X100322619Y-465582095D01*
X100694047Y-465582095D02*
X100694047Y-464282095D01*
X100570238Y-464467809D01*
X100446428Y-464591619D01*
X100322619Y-464653523D01*
X101560714Y-464405904D02*
X101622619Y-464344000D01*
X101746428Y-464282095D01*
X102055952Y-464282095D01*
X102179761Y-464344000D01*
X102241666Y-464405904D01*
X102303571Y-464529714D01*
X102303571Y-464653523D01*
X102241666Y-464839238D01*
X101498809Y-465582095D01*
X102303571Y-465582095D01*
D10*
D11*
X151065476Y-465582095D02*
X150322619Y-465582095D01*
X150694047Y-465582095D02*
X150694047Y-464282095D01*
X150570238Y-464467809D01*
X150446428Y-464591619D01*
X150322619Y-464653523D01*
X151498809Y-464282095D02*
X152303571Y-464282095D01*
X151870238Y-464777333D01*
X152055952Y-464777333D01*
X152179761Y-464839238D01*
X152241666Y-464901142D01*
X152303571Y-465024952D01*
X152303571Y-465334476D01*
X152241666Y-465458285D01*
X152179761Y-465520190D01*
X152055952Y-465582095D01*
X151684523Y-465582095D01*
X151560714Y-465520190D01*
X151498809Y-465458285D01*
D10*
D11*
X201065476Y-465582095D02*
X200322619Y-465582095D01*
X200694047Y-465582095D02*
X200694047Y-464282095D01*
X200570238Y-464467809D01*
X200446428Y-464591619D01*
X200322619Y-464653523D01*
X202179761Y-464715428D02*
X202179761Y-465582095D01*
X201870238Y-464220190D02*
X201560714Y-465148761D01*
X202365476Y-465148761D01*
D10*
D11*
X251065476Y-465582095D02*
X250322619Y-465582095D01*
X250694047Y-465582095D02*
X250694047Y-464282095D01*
X250570238Y-464467809D01*
X250446428Y-464591619D01*
X250322619Y-464653523D01*
X252241666Y-464282095D02*
X251622619Y-464282095D01*
X251560714Y-464901142D01*
X251622619Y-464839238D01*
X251746428Y-464777333D01*
X252055952Y-464777333D01*
X252179761Y-464839238D01*
X252241666Y-464901142D01*
X252303571Y-465024952D01*
X252303571Y-465334476D01*
X252241666Y-465458285D01*
X252179761Y-465520190D01*
X252055952Y-465582095D01*
X251746428Y-465582095D01*
X251622619Y-465520190D01*
X251560714Y-465458285D01*
D10*
D11*
X301065476Y-465582095D02*
X300322619Y-465582095D01*
X300694047Y-465582095D02*
X300694047Y-464282095D01*
X300570238Y-464467809D01*
X300446428Y-464591619D01*
X300322619Y-464653523D01*
X302179761Y-464282095D02*
X301932142Y-464282095D01*
X301808333Y-464344000D01*
X301746428Y-464405904D01*
X301622619Y-464591619D01*
X301560714Y-464839238D01*
X301560714Y-465334476D01*
X301622619Y-465458285D01*
X301684523Y-465520190D01*
X301808333Y-465582095D01*
X302055952Y-465582095D01*
X302179761Y-465520190D01*
X302241666Y-465458285D01*
X302303571Y-465334476D01*
X302303571Y-465024952D01*
X302241666Y-464901142D01*
X302179761Y-464839238D01*
X302055952Y-464777333D01*
X301808333Y-464777333D01*
X301684523Y-464839238D01*
X301622619Y-464901142D01*
X301560714Y-465024952D01*
D10*
D11*
X351065476Y-465582095D02*
X350322619Y-465582095D01*
X350694047Y-465582095D02*
X350694047Y-464282095D01*
X350570238Y-464467809D01*
X350446428Y-464591619D01*
X350322619Y-464653523D01*
X351498809Y-464282095D02*
X352365476Y-464282095D01*
X351808333Y-465582095D01*
D10*
D11*
X401065476Y-465582095D02*
X400322619Y-465582095D01*
X400694047Y-465582095D02*
X400694047Y-464282095D01*
X400570238Y-464467809D01*
X400446428Y-464591619D01*
X400322619Y-464653523D01*
X401808333Y-464839238D02*
X401684523Y-464777333D01*
X401622619Y-464715428D01*
X401560714Y-464591619D01*
X401560714Y-464529714D01*
X401622619Y-464405904D01*
X401684523Y-464344000D01*
X401808333Y-464282095D01*
X402055952Y-464282095D01*
X402179761Y-464344000D01*
X402241666Y-464405904D01*
X402303571Y-464529714D01*
X402303571Y-464591619D01*
X402241666Y-464715428D01*
X402179761Y-464777333D01*
X402055952Y-464839238D01*
X401808333Y-464839238D01*
X401684523Y-464901142D01*
X401622619Y-464963047D01*
X401560714Y-465086857D01*
X401560714Y-465334476D01*
X401622619Y-465458285D01*
X401684523Y-465520190D01*
X401808333Y-465582095D01*
X402055952Y-465582095D01*
X402179761Y-465520190D01*
X402241666Y-465458285D01*
X402303571Y-465334476D01*
X402303571Y-465086857D01*
X402241666Y-464963047D01*
X402179761Y-464901142D01*
X402055952Y-464839238D01*
D10*
D11*
X451065476Y-465582095D02*
X450322619Y-465582095D01*
X450694047Y-465582095D02*
X450694047Y-464282095D01*
X450570238Y-464467809D01*
X450446428Y-464591619D01*
X450322619Y-464653523D01*
X451684523Y-465582095D02*
X451932142Y-465582095D01*
X452055952Y-465520190D01*
X452117857Y-465458285D01*
X452241666Y-465272571D01*
X452303571Y-465024952D01*
X452303571Y-464529714D01*
X452241666Y-464405904D01*
X452179761Y-464344000D01*
X452055952Y-464282095D01*
X451808333Y-464282095D01*
X451684523Y-464344000D01*
X451622619Y-464405904D01*
X451560714Y-464529714D01*
X451560714Y-464839238D01*
X451622619Y-464963047D01*
X451684523Y-465024952D01*
X451808333Y-465086857D01*
X452055952Y-465086857D01*
X452179761Y-465024952D01*
X452241666Y-464963047D01*
X452303571Y-464839238D01*
D10*
D11*
X500322619Y-464405904D02*
X500384523Y-464344000D01*
X500508333Y-464282095D01*
X500817857Y-464282095D01*
X500941666Y-464344000D01*
X501003571Y-464405904D01*
X501065476Y-464529714D01*
X501065476Y-464653523D01*
X501003571Y-464839238D01*
X500260714Y-465582095D01*
X501065476Y-465582095D01*
X501870238Y-464282095D02*
X501994047Y-464282095D01*
X502117857Y-464344000D01*
X502179761Y-464405904D01*
X502241666Y-464529714D01*
X502303571Y-464777333D01*
X502303571Y-465086857D01*
X502241666Y-465334476D01*
X502179761Y-465458285D01*
X502117857Y-465520190D01*
X501994047Y-465582095D01*
X501870238Y-465582095D01*
X501746428Y-465520190D01*
X501684523Y-465458285D01*
X501622619Y-465334476D01*
X501560714Y-465086857D01*
X501560714Y-464777333D01*
X501622619Y-464529714D01*
X501684523Y-464405904D01*
X501746428Y-464344000D01*
X501870238Y-464282095D01*
D10*
D11*
X550322619Y-464405904D02*
X550384523Y-464344000D01*
X550508333Y-464282095D01*
X550817857Y-464282095D01*
X550941666Y-464344000D01*
X551003571Y-464405904D01*
X551065476Y-464529714D01*
X551065476Y-464653523D01*
X551003571Y-464839238D01*
X550260714Y-465582095D01*
X551065476Y-465582095D01*
X552303571Y-465582095D02*
X551560714Y-465582095D01*
X551932142Y-465582095D02*
X551932142Y-464282095D01*
X551808333Y-464467809D01*
X551684523Y-464591619D01*
X551560714Y-464653523D01*
D10*
D11*
X600322619Y-464405904D02*
X600384523Y-464344000D01*
X600508333Y-464282095D01*
X600817857Y-464282095D01*
X600941666Y-464344000D01*
X601003571Y-464405904D01*
X601065476Y-464529714D01*
X601065476Y-464653523D01*
X601003571Y-464839238D01*
X600260714Y-465582095D01*
X601065476Y-465582095D01*
X601560714Y-464405904D02*
X601622619Y-464344000D01*
X601746428Y-464282095D01*
X602055952Y-464282095D01*
X602179761Y-464344000D01*
X602241666Y-464405904D01*
X602303571Y-464529714D01*
X602303571Y-464653523D01*
X602241666Y-464839238D01*
X601498809Y-465582095D01*
X602303571Y-465582095D01*
D10*
D11*
X650322619Y-464405904D02*
X650384523Y-464344000D01*
X650508333Y-464282095D01*
X650817857Y-464282095D01*
X650941666Y-464344000D01*
X651003571Y-464405904D01*
X651065476Y-464529714D01*
X651065476Y-464653523D01*
X651003571Y-464839238D01*
X650260714Y-465582095D01*
X651065476Y-465582095D01*
X651498809Y-464282095D02*
X652303571Y-464282095D01*
X651870238Y-464777333D01*
X652055952Y-464777333D01*
X652179761Y-464839238D01*
X652241666Y-464901142D01*
X652303571Y-465024952D01*
X652303571Y-465334476D01*
X652241666Y-465458285D01*
X652179761Y-465520190D01*
X652055952Y-465582095D01*
X651684523Y-465582095D01*
X651560714Y-465520190D01*
X651498809Y-465458285D01*
D10*
D11*
X-475000000Y305000000D02*
X-473000000Y305000000D01*
D10*
D11*
X-475000000Y255000000D02*
X-473000000Y255000000D01*
D10*
D11*
X-475000000Y205000000D02*
X-473000000Y205000000D01*
D10*
D11*
X-475000000Y155000000D02*
X-473000000Y155000000D01*
D10*
D11*
X-475000000Y105000000D02*
X-473000000Y105000000D01*
D10*
D11*
X-475000000Y55000000D02*
X-473000000Y55000000D01*
D10*
D11*
X-475000000Y5000000D02*
X-473000000Y5000000D01*
D10*
D11*
X-475000000Y-45000000D02*
X-473000000Y-45000000D01*
D10*
D11*
X-475000000Y-95000000D02*
X-473000000Y-95000000D01*
D10*
D11*
X-475000000Y-145000000D02*
X-473000000Y-145000000D01*
D10*
D11*
X-475000000Y-195000000D02*
X-473000000Y-195000000D01*
D10*
D11*
X-475000000Y-245000000D02*
X-473000000Y-245000000D01*
D10*
D11*
X-475000000Y-295000000D02*
X-473000000Y-295000000D01*
D10*
D11*
X-475000000Y-345000000D02*
X-473000000Y-345000000D01*
D10*
D11*
X-475000000Y-395000000D02*
X-473000000Y-395000000D01*
D10*
D11*
X-475000000Y-445000000D02*
X-473000000Y-445000000D01*
D10*
D11*
X-474309524Y329783334D02*
X-473690477Y329783334D01*
X-474433334Y329411905D02*
X-474000000Y330711905D01*
X-473566667Y329411905D01*
D10*
D11*
X-473907143Y280092858D02*
X-473721429Y280030953D01*
X-473659524Y279969048D01*
X-473597620Y279845239D01*
X-473597620Y279659524D01*
X-473659524Y279535715D01*
X-473721429Y279473810D01*
X-473845239Y279411905D01*
X-474340477Y279411905D01*
X-474340477Y280711905D01*
X-473907143Y280711905D01*
X-473783334Y280650000D01*
X-473721429Y280588096D01*
X-473659524Y280464286D01*
X-473659524Y280340477D01*
X-473721429Y280216667D01*
X-473783334Y280154762D01*
X-473907143Y280092858D01*
X-474340477Y280092858D01*
D10*
D11*
X-473597620Y229535715D02*
X-473659524Y229473810D01*
X-473845239Y229411905D01*
X-473969048Y229411905D01*
X-474154762Y229473810D01*
X-474278572Y229597620D01*
X-474340477Y229721429D01*
X-474402381Y229969048D01*
X-474402381Y230154762D01*
X-474340477Y230402381D01*
X-474278572Y230526191D01*
X-474154762Y230650000D01*
X-473969048Y230711905D01*
X-473845239Y230711905D01*
X-473659524Y230650000D01*
X-473597620Y230588096D01*
D10*
D11*
X-474340477Y179411905D02*
X-474340477Y180711905D01*
X-474030953Y180711905D01*
X-473845239Y180650000D01*
X-473721429Y180526191D01*
X-473659524Y180402381D01*
X-473597620Y180154762D01*
X-473597620Y179969048D01*
X-473659524Y179721429D01*
X-473721429Y179597620D01*
X-473845239Y179473810D01*
X-474030953Y179411905D01*
X-474340477Y179411905D01*
D10*
D11*
X-474278572Y130092858D02*
X-473845239Y130092858D01*
X-473659524Y129411905D02*
X-474278572Y129411905D01*
X-474278572Y130711905D01*
X-473659524Y130711905D01*
D10*
D11*
X-473814286Y80092858D02*
X-474247620Y80092858D01*
X-474247620Y79411905D02*
X-474247620Y80711905D01*
X-473628572Y80711905D01*
D10*
D11*
X-473659524Y30650000D02*
X-473783334Y30711905D01*
X-473969048Y30711905D01*
X-474154762Y30650000D01*
X-474278572Y30526191D01*
X-474340477Y30402381D01*
X-474402381Y30154762D01*
X-474402381Y29969048D01*
X-474340477Y29721429D01*
X-474278572Y29597620D01*
X-474154762Y29473810D01*
X-473969048Y29411905D01*
X-473845239Y29411905D01*
X-473659524Y29473810D01*
X-473597620Y29535715D01*
X-473597620Y29969048D01*
X-473845239Y29969048D01*
D10*
D11*
X-474371429Y-20588095D02*
X-474371429Y-19288095D01*
X-474371429Y-19907142D02*
X-473628572Y-19907142D01*
X-473628572Y-20588095D02*
X-473628572Y-19288095D01*
D10*
D11*
X-474000000Y-70588095D02*
X-474000000Y-69288095D01*
D10*
D11*
X-473814286Y-119288095D02*
X-473814286Y-120216666D01*
X-473876191Y-120402380D01*
X-474000000Y-120526190D01*
X-474185715Y-120588095D01*
X-474309524Y-120588095D01*
D10*
D11*
X-474340477Y-170588095D02*
X-474340477Y-169288095D01*
X-473597620Y-170588095D02*
X-474154762Y-169845238D01*
X-473597620Y-169288095D02*
X-474340477Y-170030952D01*
D10*
D11*
X-473597620Y-220588095D02*
X-474216667Y-220588095D01*
X-474216667Y-219288095D01*
D10*
D11*
X-474433334Y-270588095D02*
X-474433334Y-269288095D01*
X-474000000Y-270216666D01*
X-473566667Y-269288095D01*
X-473566667Y-270588095D01*
D10*
D11*
X-474371429Y-320588095D02*
X-474371429Y-319288095D01*
X-473628572Y-320588095D01*
X-473628572Y-319288095D01*
D10*
D11*
X-474123810Y-369288095D02*
X-473876191Y-369288095D01*
X-473752381Y-369350000D01*
X-473628572Y-369473809D01*
X-473566667Y-369721428D01*
X-473566667Y-370154761D01*
X-473628572Y-370402380D01*
X-473752381Y-370526190D01*
X-473876191Y-370588095D01*
X-474123810Y-370588095D01*
X-474247620Y-370526190D01*
X-474371429Y-370402380D01*
X-474433334Y-370154761D01*
X-474433334Y-369721428D01*
X-474371429Y-369473809D01*
X-474247620Y-369350000D01*
X-474123810Y-369288095D01*
D10*
D11*
X-474340477Y-420588095D02*
X-474340477Y-419288095D01*
X-473845239Y-419288095D01*
X-473721429Y-419350000D01*
X-473659524Y-419411904D01*
X-473597620Y-419535714D01*
X-473597620Y-419721428D01*
X-473659524Y-419845238D01*
X-473721429Y-419907142D01*
X-473845239Y-419969047D01*
X-474340477Y-419969047D01*
D10*
D11*
X693999400Y305000000D02*
X691999400Y305000000D01*
D10*
D11*
X693999400Y255000000D02*
X691999400Y255000000D01*
D10*
D11*
X693999400Y205000000D02*
X691999400Y205000000D01*
D10*
D11*
X693999400Y155000000D02*
X691999400Y155000000D01*
D10*
D11*
X693999400Y105000000D02*
X691999400Y105000000D01*
D10*
D11*
X693999400Y55000000D02*
X691999400Y55000000D01*
D10*
D11*
X693999400Y5000000D02*
X691999400Y5000000D01*
D10*
D11*
X693999400Y-45000000D02*
X691999400Y-45000000D01*
D10*
D11*
X693999400Y-95000000D02*
X691999400Y-95000000D01*
D10*
D11*
X693999400Y-145000000D02*
X691999400Y-145000000D01*
D10*
D11*
X693999400Y-195000000D02*
X691999400Y-195000000D01*
D10*
D11*
X693999400Y-245000000D02*
X691999400Y-245000000D01*
D10*
D11*
X693999400Y-295000000D02*
X691999400Y-295000000D01*
D10*
D11*
X693999400Y-345000000D02*
X691999400Y-345000000D01*
D10*
D11*
X693999400Y-395000000D02*
X691999400Y-395000000D01*
D10*
D11*
X693999400Y-445000000D02*
X691999400Y-445000000D01*
D10*
D11*
X692689876Y329783334D02*
X693308923Y329783334D01*
X692566066Y329411905D02*
X692999400Y330711905D01*
X693432733Y329411905D01*
D10*
D11*
X693092257Y280092858D02*
X693277971Y280030953D01*
X693339876Y279969048D01*
X693401780Y279845239D01*
X693401780Y279659524D01*
X693339876Y279535715D01*
X693277971Y279473810D01*
X693154161Y279411905D01*
X692658923Y279411905D01*
X692658923Y280711905D01*
X693092257Y280711905D01*
X693216066Y280650000D01*
X693277971Y280588096D01*
X693339876Y280464286D01*
X693339876Y280340477D01*
X693277971Y280216667D01*
X693216066Y280154762D01*
X693092257Y280092858D01*
X692658923Y280092858D01*
D10*
D11*
X693401780Y229535715D02*
X693339876Y229473810D01*
X693154161Y229411905D01*
X693030352Y229411905D01*
X692844638Y229473810D01*
X692720828Y229597620D01*
X692658923Y229721429D01*
X692597019Y229969048D01*
X692597019Y230154762D01*
X692658923Y230402381D01*
X692720828Y230526191D01*
X692844638Y230650000D01*
X693030352Y230711905D01*
X693154161Y230711905D01*
X693339876Y230650000D01*
X693401780Y230588096D01*
D10*
D11*
X692658923Y179411905D02*
X692658923Y180711905D01*
X692968447Y180711905D01*
X693154161Y180650000D01*
X693277971Y180526191D01*
X693339876Y180402381D01*
X693401780Y180154762D01*
X693401780Y179969048D01*
X693339876Y179721429D01*
X693277971Y179597620D01*
X693154161Y179473810D01*
X692968447Y179411905D01*
X692658923Y179411905D01*
D10*
D11*
X692720828Y130092858D02*
X693154161Y130092858D01*
X693339876Y129411905D02*
X692720828Y129411905D01*
X692720828Y130711905D01*
X693339876Y130711905D01*
D10*
D11*
X693185114Y80092858D02*
X692751780Y80092858D01*
X692751780Y79411905D02*
X692751780Y80711905D01*
X693370828Y80711905D01*
D10*
D11*
X693339876Y30650000D02*
X693216066Y30711905D01*
X693030352Y30711905D01*
X692844638Y30650000D01*
X692720828Y30526191D01*
X692658923Y30402381D01*
X692597019Y30154762D01*
X692597019Y29969048D01*
X692658923Y29721429D01*
X692720828Y29597620D01*
X692844638Y29473810D01*
X693030352Y29411905D01*
X693154161Y29411905D01*
X693339876Y29473810D01*
X693401780Y29535715D01*
X693401780Y29969048D01*
X693154161Y29969048D01*
D10*
D11*
X692627971Y-20588095D02*
X692627971Y-19288095D01*
X692627971Y-19907142D02*
X693370828Y-19907142D01*
X693370828Y-20588095D02*
X693370828Y-19288095D01*
D10*
D11*
X692999400Y-70588095D02*
X692999400Y-69288095D01*
D10*
D11*
X693185114Y-119288095D02*
X693185114Y-120216666D01*
X693123209Y-120402380D01*
X692999400Y-120526190D01*
X692813685Y-120588095D01*
X692689876Y-120588095D01*
D10*
D11*
X692658923Y-170588095D02*
X692658923Y-169288095D01*
X693401780Y-170588095D02*
X692844638Y-169845238D01*
X693401780Y-169288095D02*
X692658923Y-170030952D01*
D10*
D11*
X693401780Y-220588095D02*
X692782733Y-220588095D01*
X692782733Y-219288095D01*
D10*
D11*
X692566066Y-270588095D02*
X692566066Y-269288095D01*
X692999400Y-270216666D01*
X693432733Y-269288095D01*
X693432733Y-270588095D01*
D10*
D11*
X692627971Y-320588095D02*
X692627971Y-319288095D01*
X693370828Y-320588095D01*
X693370828Y-319288095D01*
D10*
D11*
X692875590Y-369288095D02*
X693123209Y-369288095D01*
X693247019Y-369350000D01*
X693370828Y-369473809D01*
X693432733Y-369721428D01*
X693432733Y-370154761D01*
X693370828Y-370402380D01*
X693247019Y-370526190D01*
X693123209Y-370588095D01*
X692875590Y-370588095D01*
X692751780Y-370526190D01*
X692627971Y-370402380D01*
X692566066Y-370154761D01*
X692566066Y-369721428D01*
X692627971Y-369473809D01*
X692751780Y-369350000D01*
X692875590Y-369288095D01*
D10*
D11*
X692658923Y-420588095D02*
X692658923Y-419288095D01*
X693154161Y-419288095D01*
X693277971Y-419350000D01*
X693339876Y-419411904D01*
X693401780Y-419535714D01*
X693401780Y-419721428D01*
X693339876Y-419845238D01*
X693277971Y-419907142D01*
X693154161Y-419969047D01*
X692658923Y-419969047D01*
D10*
D11*
X607431542Y-459772571D02*
X607431542Y-458272571D01*
X607788685Y-458272571D01*
X608002971Y-458344000D01*
X608145828Y-458486857D01*
X608217257Y-458629714D01*
X608288685Y-458915428D01*
X608288685Y-459129714D01*
X608217257Y-459415428D01*
X608145828Y-459558285D01*
X608002971Y-459701142D01*
X607788685Y-459772571D01*
X607431542Y-459772571D01*
X609574400Y-459772571D02*
X609574400Y-458986857D01*
X609502971Y-458844000D01*
X609360114Y-458772571D01*
X609074400Y-458772571D01*
X608931542Y-458844000D01*
X609574400Y-459701142D02*
X609431542Y-459772571D01*
X609074400Y-459772571D01*
X608931542Y-459701142D01*
X608860114Y-459558285D01*
X608860114Y-459415428D01*
X608931542Y-459272571D01*
X609074400Y-459201142D01*
X609431542Y-459201142D01*
X609574400Y-459129714D01*
X610074400Y-458772571D02*
X610645828Y-458772571D01*
X610288685Y-458272571D02*
X610288685Y-459558285D01*
X610360114Y-459701142D01*
X610502971Y-459772571D01*
X610645828Y-459772571D01*
X611717257Y-459701142D02*
X611574400Y-459772571D01*
X611288685Y-459772571D01*
X611145828Y-459701142D01*
X611074400Y-459558285D01*
X611074400Y-458986857D01*
X611145828Y-458844000D01*
X611288685Y-458772571D01*
X611574400Y-458772571D01*
X611717257Y-458844000D01*
X611788685Y-458986857D01*
X611788685Y-459129714D01*
X611074400Y-459272571D01*
X612431542Y-459629714D02*
X612502971Y-459701142D01*
X612431542Y-459772571D01*
X612360114Y-459701142D01*
X612431542Y-459629714D01*
X612431542Y-459772571D01*
X612431542Y-458844000D02*
X612502971Y-458915428D01*
X612431542Y-458986857D01*
X612360114Y-458915428D01*
X612431542Y-458844000D01*
X612431542Y-458986857D01*
D10*
D11*
X583999400Y-460494000D02*
X691999400Y-460494000D01*
D10*
D11*
X585431542Y-462572571D02*
X585431542Y-461072571D01*
X586288685Y-462572571D02*
X585645828Y-461715428D01*
X586288685Y-461072571D02*
X585431542Y-461929714D01*
X586931542Y-462572571D02*
X586931542Y-461572571D01*
X586931542Y-461072571D02*
X586860114Y-461144000D01*
X586931542Y-461215428D01*
X587002971Y-461144000D01*
X586931542Y-461072571D01*
X586931542Y-461215428D01*
X588502971Y-462429714D02*
X588431542Y-462501142D01*
X588217257Y-462572571D01*
X588074400Y-462572571D01*
X587860114Y-462501142D01*
X587717257Y-462358285D01*
X587645828Y-462215428D01*
X587574400Y-461929714D01*
X587574400Y-461715428D01*
X587645828Y-461429714D01*
X587717257Y-461286857D01*
X587860114Y-461144000D01*
X588074400Y-461072571D01*
X588217257Y-461072571D01*
X588431542Y-461144000D01*
X588502971Y-461215428D01*
X589788685Y-462572571D02*
X589788685Y-461786857D01*
X589717257Y-461644000D01*
X589574400Y-461572571D01*
X589288685Y-461572571D01*
X589145828Y-461644000D01*
X589788685Y-462501142D02*
X589645828Y-462572571D01*
X589288685Y-462572571D01*
X589145828Y-462501142D01*
X589074400Y-462358285D01*
X589074400Y-462215428D01*
X589145828Y-462072571D01*
X589288685Y-462001142D01*
X589645828Y-462001142D01*
X589788685Y-461929714D01*
X591145828Y-462572571D02*
X591145828Y-461072571D01*
X591145828Y-462501142D02*
X591002971Y-462572571D01*
X590717257Y-462572571D01*
X590574400Y-462501142D01*
X590502971Y-462429714D01*
X590431542Y-462286857D01*
X590431542Y-461858285D01*
X590502971Y-461715428D01*
X590574400Y-461644000D01*
X590717257Y-461572571D01*
X591002971Y-461572571D01*
X591145828Y-461644000D01*
X593002971Y-461786857D02*
X593502971Y-461786857D01*
X593717257Y-462572571D02*
X593002971Y-462572571D01*
X593002971Y-461072571D01*
X593717257Y-461072571D01*
X594360114Y-462429714D02*
X594431542Y-462501142D01*
X594360114Y-462572571D01*
X594288685Y-462501142D01*
X594360114Y-462429714D01*
X594360114Y-462572571D01*
X595074400Y-462572571D02*
X595074400Y-461072571D01*
X595431542Y-461072571D01*
X595645828Y-461144000D01*
X595788685Y-461286857D01*
X595860114Y-461429714D01*
X595931542Y-461715428D01*
X595931542Y-461929714D01*
X595860114Y-462215428D01*
X595788685Y-462358285D01*
X595645828Y-462501142D01*
X595431542Y-462572571D01*
X595074400Y-462572571D01*
X596574400Y-462429714D02*
X596645828Y-462501142D01*
X596574400Y-462572571D01*
X596502971Y-462501142D01*
X596574400Y-462429714D01*
X596574400Y-462572571D01*
X597217257Y-462144000D02*
X597931542Y-462144000D01*
X597074400Y-462572571D02*
X597574400Y-461072571D01*
X598074400Y-462572571D01*
X598574400Y-462429714D02*
X598645828Y-462501142D01*
X598574400Y-462572571D01*
X598502971Y-462501142D01*
X598574400Y-462429714D01*
X598574400Y-462572571D01*
X601574400Y-462572571D02*
X601574400Y-461072571D01*
X601717257Y-462001142D02*
X602145828Y-462572571D01*
X602145828Y-461572571D02*
X601574400Y-462144000D01*
X602788685Y-462572571D02*
X602788685Y-461572571D01*
X602788685Y-461072571D02*
X602717257Y-461144000D01*
X602788685Y-461215428D01*
X602860114Y-461144000D01*
X602788685Y-461072571D01*
X602788685Y-461215428D01*
X604145828Y-462501142D02*
X604002971Y-462572571D01*
X603717257Y-462572571D01*
X603574400Y-462501142D01*
X603502971Y-462429714D01*
X603431542Y-462286857D01*
X603431542Y-461858285D01*
X603502971Y-461715428D01*
X603574400Y-461644000D01*
X603717257Y-461572571D01*
X604002971Y-461572571D01*
X604145828Y-461644000D01*
X605431542Y-462572571D02*
X605431542Y-461786857D01*
X605360114Y-461644000D01*
X605217257Y-461572571D01*
X604931542Y-461572571D01*
X604788685Y-461644000D01*
X605431542Y-462501142D02*
X605288685Y-462572571D01*
X604931542Y-462572571D01*
X604788685Y-462501142D01*
X604717257Y-462358285D01*
X604717257Y-462215428D01*
X604788685Y-462072571D01*
X604931542Y-462001142D01*
X605288685Y-462001142D01*
X605431542Y-461929714D01*
X606788685Y-462572571D02*
X606788685Y-461072571D01*
X606788685Y-462501142D02*
X606645828Y-462572571D01*
X606360114Y-462572571D01*
X606217257Y-462501142D01*
X606145828Y-462429714D01*
X606074400Y-462286857D01*
X606074400Y-461858285D01*
X606145828Y-461715428D01*
X606217257Y-461644000D01*
X606360114Y-461572571D01*
X606645828Y-461572571D01*
X606788685Y-461644000D01*
X609360114Y-461072571D02*
X608645828Y-461072571D01*
X608574400Y-461786857D01*
X608645828Y-461715428D01*
X608788685Y-461644000D01*
X609145828Y-461644000D01*
X609288685Y-461715428D01*
X609360114Y-461786857D01*
X609431542Y-461929714D01*
X609431542Y-462286857D01*
X609360114Y-462429714D01*
X609288685Y-462501142D01*
X609145828Y-462572571D01*
X608788685Y-462572571D01*
X608645828Y-462501142D01*
X608574400Y-462429714D01*
X610074400Y-462429714D02*
X610145828Y-462501142D01*
X610074400Y-462572571D01*
X610002971Y-462501142D01*
X610074400Y-462429714D01*
X610074400Y-462572571D01*
X610860114Y-462572571D02*
X611145828Y-462572571D01*
X611288685Y-462501142D01*
X611360114Y-462429714D01*
X611502971Y-462215428D01*
X611574400Y-461929714D01*
X611574400Y-461358285D01*
X611502971Y-461215428D01*
X611431542Y-461144000D01*
X611288685Y-461072571D01*
X611002971Y-461072571D01*
X610860114Y-461144000D01*
X610788685Y-461215428D01*
X610717257Y-461358285D01*
X610717257Y-461715428D01*
X610788685Y-461858285D01*
X610860114Y-461929714D01*
X611002971Y-462001142D01*
X611288685Y-462001142D01*
X611431542Y-461929714D01*
X611502971Y-461858285D01*
X611574400Y-461715428D01*
X612288685Y-462572571D02*
X612574400Y-462572571D01*
X612717257Y-462501142D01*
X612788685Y-462429714D01*
X612931542Y-462215428D01*
X613002971Y-461929714D01*
X613002971Y-461358285D01*
X612931542Y-461215428D01*
X612860114Y-461144000D01*
X612717257Y-461072571D01*
X612431542Y-461072571D01*
X612288685Y-461144000D01*
X612217257Y-461215428D01*
X612145828Y-461358285D01*
X612145828Y-461715428D01*
X612217257Y-461858285D01*
X612288685Y-461929714D01*
X612431542Y-462001142D01*
X612717257Y-462001142D01*
X612860114Y-461929714D01*
X612931542Y-461858285D01*
X613002971Y-461715428D01*
X613645828Y-462429714D02*
X613717257Y-462501142D01*
X613645828Y-462572571D01*
X613574400Y-462501142D01*
X613645828Y-462429714D01*
X613645828Y-462572571D01*
X614645828Y-461072571D02*
X614788685Y-461072571D01*
X614931542Y-461144000D01*
X615002971Y-461215428D01*
X615074400Y-461358285D01*
X615145828Y-461644000D01*
X615145828Y-462001142D01*
X615074400Y-462286857D01*
X615002971Y-462429714D01*
X614931542Y-462501142D01*
X614788685Y-462572571D01*
X614645828Y-462572571D01*
X614502971Y-462501142D01*
X614431542Y-462429714D01*
X614360114Y-462286857D01*
X614288685Y-462001142D01*
X614288685Y-461644000D01*
X614360114Y-461358285D01*
X614431542Y-461215428D01*
X614502971Y-461144000D01*
X614645828Y-461072571D01*
X615788685Y-462001142D02*
X616931542Y-462001142D01*
X618288685Y-461572571D02*
X618288685Y-462572571D01*
X617645828Y-461572571D02*
X617645828Y-462358285D01*
X617717257Y-462501142D01*
X617860114Y-462572571D01*
X618074400Y-462572571D01*
X618217257Y-462501142D01*
X618288685Y-462429714D01*
X619002971Y-461572571D02*
X619002971Y-462572571D01*
X619002971Y-461715428D02*
X619074400Y-461644000D01*
X619217257Y-461572571D01*
X619431542Y-461572571D01*
X619574400Y-461644000D01*
X619645828Y-461786857D01*
X619645828Y-462572571D01*
X620360114Y-462572571D02*
X620360114Y-461072571D01*
X620502971Y-462001142D02*
X620931542Y-462572571D01*
X620931542Y-461572571D02*
X620360114Y-462144000D01*
X621574400Y-461572571D02*
X621574400Y-462572571D01*
X621574400Y-461715428D02*
X621645828Y-461644000D01*
X621788685Y-461572571D01*
X622002971Y-461572571D01*
X622145828Y-461644000D01*
X622217257Y-461786857D01*
X622217257Y-462572571D01*
X623145828Y-462572571D02*
X623002971Y-462501142D01*
X622931542Y-462429714D01*
X622860114Y-462286857D01*
X622860114Y-461858285D01*
X622931542Y-461715428D01*
X623002971Y-461644000D01*
X623145828Y-461572571D01*
X623360114Y-461572571D01*
X623502971Y-461644000D01*
X623574400Y-461715428D01*
X623645828Y-461858285D01*
X623645828Y-462286857D01*
X623574400Y-462429714D01*
X623502971Y-462501142D01*
X623360114Y-462572571D01*
X623145828Y-462572571D01*
X624145828Y-461572571D02*
X624431542Y-462572571D01*
X624717257Y-461858285D01*
X625002971Y-462572571D01*
X625288685Y-461572571D01*
X625860114Y-461572571D02*
X625860114Y-462572571D01*
X625860114Y-461715428D02*
X625931542Y-461644000D01*
X626074400Y-461572571D01*
X626288685Y-461572571D01*
X626431542Y-461644000D01*
X626502971Y-461786857D01*
X626502971Y-462572571D01*
X627217257Y-462001142D02*
X628360114Y-462001142D01*
X629145828Y-462572571D02*
X629431542Y-462572571D01*
X629574400Y-462501142D01*
X629645828Y-462429714D01*
X629788685Y-462215428D01*
X629860114Y-461929714D01*
X629860114Y-461358285D01*
X629788685Y-461215428D01*
X629717257Y-461144000D01*
X629574400Y-461072571D01*
X629288685Y-461072571D01*
X629145828Y-461144000D01*
X629074400Y-461215428D01*
X629002971Y-461358285D01*
X629002971Y-461715428D01*
X629074400Y-461858285D01*
X629145828Y-461929714D01*
X629288685Y-462001142D01*
X629574400Y-462001142D01*
X629717257Y-461929714D01*
X629788685Y-461858285D01*
X629860114Y-461715428D01*
X631288685Y-462572571D02*
X630431542Y-462572571D01*
X630860114Y-462572571D02*
X630860114Y-461072571D01*
X630717257Y-461286857D01*
X630574400Y-461429714D01*
X630431542Y-461501142D01*
X631860114Y-461215428D02*
X631931542Y-461144000D01*
X632074400Y-461072571D01*
X632431542Y-461072571D01*
X632574400Y-461144000D01*
X632645828Y-461215428D01*
X632717257Y-461358285D01*
X632717257Y-461501142D01*
X632645828Y-461715428D01*
X631788685Y-462572571D01*
X632717257Y-462572571D01*
X634002971Y-461072571D02*
X633717257Y-461072571D01*
X633574400Y-461144000D01*
X633502971Y-461215428D01*
X633360114Y-461429714D01*
X633288685Y-461715428D01*
X633288685Y-462286857D01*
X633360114Y-462429714D01*
X633431542Y-462501142D01*
X633574400Y-462572571D01*
X633860114Y-462572571D01*
X634002971Y-462501142D01*
X634074400Y-462429714D01*
X634145828Y-462286857D01*
X634145828Y-461929714D01*
X634074400Y-461786857D01*
X634002971Y-461715428D01*
X633860114Y-461644000D01*
X633574400Y-461644000D01*
X633431542Y-461715428D01*
X633360114Y-461786857D01*
X633288685Y-461929714D01*
X635502971Y-461072571D02*
X634788685Y-461072571D01*
X634717257Y-461786857D01*
X634788685Y-461715428D01*
X634931542Y-461644000D01*
X635288685Y-461644000D01*
X635431542Y-461715428D01*
X635502971Y-461786857D01*
X635574400Y-461929714D01*
X635574400Y-462286857D01*
X635502971Y-462429714D01*
X635431542Y-462501142D01*
X635288685Y-462572571D01*
X634931542Y-462572571D01*
X634788685Y-462501142D01*
X634717257Y-462429714D01*
X636074400Y-461072571D02*
X637074400Y-461072571D01*
X636431542Y-462572571D01*
X638288685Y-462572571D02*
X638288685Y-461072571D01*
X638288685Y-462501142D02*
X638145828Y-462572571D01*
X637860114Y-462572571D01*
X637717257Y-462501142D01*
X637645828Y-462429714D01*
X637574400Y-462286857D01*
X637574400Y-461858285D01*
X637645828Y-461715428D01*
X637717257Y-461644000D01*
X637860114Y-461572571D01*
X638145828Y-461572571D01*
X638288685Y-461644000D01*
X639645828Y-462572571D02*
X639645828Y-461072571D01*
X639645828Y-462501142D02*
X639502971Y-462572571D01*
X639217257Y-462572571D01*
X639074400Y-462501142D01*
X639002971Y-462429714D01*
X638931542Y-462286857D01*
X638931542Y-461858285D01*
X639002971Y-461715428D01*
X639074400Y-461644000D01*
X639217257Y-461572571D01*
X639502971Y-461572571D01*
X639645828Y-461644000D01*
X640288685Y-461215428D02*
X640360114Y-461144000D01*
X640502971Y-461072571D01*
X640860114Y-461072571D01*
X641002971Y-461144000D01*
X641074400Y-461215428D01*
X641145828Y-461358285D01*
X641145828Y-461501142D01*
X641074400Y-461715428D01*
X640217257Y-462572571D01*
X641145828Y-462572571D01*
X641645828Y-461072571D02*
X642574400Y-461072571D01*
X642074400Y-461644000D01*
X642288685Y-461644000D01*
X642431542Y-461715428D01*
X642502971Y-461786857D01*
X642574400Y-461929714D01*
X642574400Y-462286857D01*
X642502971Y-462429714D01*
X642431542Y-462501142D01*
X642288685Y-462572571D01*
X641860114Y-462572571D01*
X641717257Y-462501142D01*
X641645828Y-462429714D01*
X642860114Y-460649000D02*
X644288685Y-460649000D01*
X644002971Y-462572571D02*
X643145828Y-462572571D01*
X643574400Y-462572571D02*
X643574400Y-461072571D01*
X643431542Y-461286857D01*
X643288685Y-461429714D01*
X643145828Y-461501142D01*
X644288685Y-460649000D02*
X645717257Y-460649000D01*
X644931542Y-461072571D02*
X645074400Y-461072571D01*
X645217257Y-461144000D01*
X645288685Y-461215428D01*
X645360114Y-461358285D01*
X645431542Y-461644000D01*
X645431542Y-462001142D01*
X645360114Y-462286857D01*
X645288685Y-462429714D01*
X645217257Y-462501142D01*
X645074400Y-462572571D01*
X644931542Y-462572571D01*
X644788685Y-462501142D01*
X644717257Y-462429714D01*
X644645828Y-462286857D01*
X644574400Y-462001142D01*
X644574400Y-461644000D01*
X644645828Y-461358285D01*
X644717257Y-461215428D01*
X644788685Y-461144000D01*
X644931542Y-461072571D01*
X645717257Y-460649000D02*
X647145828Y-460649000D01*
X646717257Y-461072571D02*
X646431542Y-461072571D01*
X646288685Y-461144000D01*
X646217257Y-461215428D01*
X646074400Y-461429714D01*
X646002971Y-461715428D01*
X646002971Y-462286857D01*
X646074400Y-462429714D01*
X646145828Y-462501142D01*
X646288685Y-462572571D01*
X646574400Y-462572571D01*
X646717257Y-462501142D01*
X646788685Y-462429714D01*
X646860114Y-462286857D01*
X646860114Y-461929714D01*
X646788685Y-461786857D01*
X646717257Y-461715428D01*
X646574400Y-461644000D01*
X646288685Y-461644000D01*
X646145828Y-461715428D01*
X646074400Y-461786857D01*
X646002971Y-461929714D01*
X648145828Y-461572571D02*
X648145828Y-462572571D01*
X647502971Y-461572571D02*
X647502971Y-462358285D01*
X647574400Y-462501142D01*
X647717257Y-462572571D01*
X647931542Y-462572571D01*
X648074400Y-462501142D01*
X648145828Y-462429714D01*
X648860114Y-462572571D02*
X648860114Y-461072571D01*
X648860114Y-461644000D02*
X649002971Y-461572571D01*
X649288685Y-461572571D01*
X649431542Y-461644000D01*
X649502971Y-461715428D01*
X649574400Y-461858285D01*
X649574400Y-462286857D01*
X649502971Y-462429714D01*
X649431542Y-462501142D01*
X649288685Y-462572571D01*
X649002971Y-462572571D01*
X648860114Y-462501142D01*
X650860114Y-461572571D02*
X650860114Y-462572571D01*
X650217257Y-461572571D02*
X650217257Y-462358285D01*
X650288685Y-462501142D01*
X650431542Y-462572571D01*
X650645828Y-462572571D01*
X650788685Y-462501142D01*
X650860114Y-462429714D01*
X651574400Y-461572571D02*
X651574400Y-462572571D01*
X651574400Y-461715428D02*
X651645828Y-461644000D01*
X651788685Y-461572571D01*
X652002971Y-461572571D01*
X652145828Y-461644000D01*
X652217257Y-461786857D01*
X652217257Y-462572571D01*
X652717257Y-461572571D02*
X653288685Y-461572571D01*
X652931542Y-461072571D02*
X652931542Y-462358285D01*
X653002971Y-462501142D01*
X653145828Y-462572571D01*
X653288685Y-462572571D01*
X654431542Y-461572571D02*
X654431542Y-462572571D01*
X653788685Y-461572571D02*
X653788685Y-462358285D01*
X653860114Y-462501142D01*
X654002971Y-462572571D01*
X654217257Y-462572571D01*
X654360114Y-462501142D01*
X654431542Y-462429714D01*
X655074400Y-461215428D02*
X655145828Y-461144000D01*
X655288685Y-461072571D01*
X655645828Y-461072571D01*
X655788685Y-461144000D01*
X655860114Y-461215428D01*
X655931542Y-461358285D01*
X655931542Y-461501142D01*
X655860114Y-461715428D01*
X655002971Y-462572571D01*
X655931542Y-462572571D01*
X656860114Y-461072571D02*
X657002971Y-461072571D01*
X657145828Y-461144000D01*
X657217257Y-461215428D01*
X657288685Y-461358285D01*
X657360114Y-461644000D01*
X657360114Y-462001142D01*
X657288685Y-462286857D01*
X657217257Y-462429714D01*
X657145828Y-462501142D01*
X657002971Y-462572571D01*
X656860114Y-462572571D01*
X656717257Y-462501142D01*
X656645828Y-462429714D01*
X656574400Y-462286857D01*
X656502971Y-462001142D01*
X656502971Y-461644000D01*
X656574400Y-461358285D01*
X656645828Y-461215428D01*
X656717257Y-461144000D01*
X656860114Y-461072571D01*
X658002971Y-462429714D02*
X658074400Y-462501142D01*
X658002971Y-462572571D01*
X657931542Y-462501142D01*
X658002971Y-462429714D01*
X658002971Y-462572571D01*
X659002971Y-461072571D02*
X659145828Y-461072571D01*
X659288685Y-461144000D01*
X659360114Y-461215428D01*
X659431542Y-461358285D01*
X659502971Y-461644000D01*
X659502971Y-462001142D01*
X659431542Y-462286857D01*
X659360114Y-462429714D01*
X659288685Y-462501142D01*
X659145828Y-462572571D01*
X659002971Y-462572571D01*
X658860114Y-462501142D01*
X658788685Y-462429714D01*
X658717257Y-462286857D01*
X658645828Y-462001142D01*
X658645828Y-461644000D01*
X658717257Y-461358285D01*
X658788685Y-461215428D01*
X658860114Y-461144000D01*
X659002971Y-461072571D01*
X660788685Y-461572571D02*
X660788685Y-462572571D01*
X660431542Y-461001142D02*
X660074400Y-462072571D01*
X661002971Y-462072571D01*
X661574400Y-462429714D02*
X661645828Y-462501142D01*
X661574400Y-462572571D01*
X661502971Y-462501142D01*
X661574400Y-462429714D01*
X661574400Y-462572571D01*
X663074400Y-462572571D02*
X662217257Y-462572571D01*
X662645828Y-462572571D02*
X662645828Y-461072571D01*
X662502971Y-461286857D01*
X662360114Y-461429714D01*
X662217257Y-461501142D01*
D10*
D11*
X583999400Y-457494000D02*
X691999400Y-457494000D01*
D10*
D12*
X671408685Y-459772571D02*
X670908685Y-459058285D01*
X670551542Y-459772571D02*
X670551542Y-458272571D01*
X671122971Y-458272571D01*
X671265828Y-458344000D01*
X671337257Y-458415428D01*
X671408685Y-458558285D01*
X671408685Y-458772571D01*
X671337257Y-458915428D01*
X671265828Y-458986857D01*
X671122971Y-459058285D01*
X670551542Y-459058285D01*
X672622971Y-459701142D02*
X672480114Y-459772571D01*
X672194400Y-459772571D01*
X672051542Y-459701142D01*
X671980114Y-459558285D01*
X671980114Y-458986857D01*
X672051542Y-458844000D01*
X672194400Y-458772571D01*
X672480114Y-458772571D01*
X672622971Y-458844000D01*
X672694400Y-458986857D01*
X672694400Y-459129714D01*
X671980114Y-459272571D01*
X673194400Y-458772571D02*
X673551542Y-459772571D01*
X673908685Y-458772571D01*
X674480114Y-459629714D02*
X674551542Y-459701142D01*
X674480114Y-459772571D01*
X674408685Y-459701142D01*
X674480114Y-459629714D01*
X674480114Y-459772571D01*
X674480114Y-458844000D02*
X674551542Y-458915428D01*
X674480114Y-458986857D01*
X674408685Y-458915428D01*
X674480114Y-458844000D01*
X674480114Y-458986857D01*
D10*
D11*
X585360114Y-459701142D02*
X585574400Y-459772571D01*
X585931542Y-459772571D01*
X586074400Y-459701142D01*
X586145828Y-459629714D01*
X586217257Y-459486857D01*
X586217257Y-459344000D01*
X586145828Y-459201142D01*
X586074400Y-459129714D01*
X585931542Y-459058285D01*
X585645828Y-458986857D01*
X585502971Y-458915428D01*
X585431542Y-458844000D01*
X585360114Y-458701142D01*
X585360114Y-458558285D01*
X585431542Y-458415428D01*
X585502971Y-458344000D01*
X585645828Y-458272571D01*
X586002971Y-458272571D01*
X586217257Y-458344000D01*
X586860114Y-459772571D02*
X586860114Y-458772571D01*
X586860114Y-458272571D02*
X586788685Y-458344000D01*
X586860114Y-458415428D01*
X586931542Y-458344000D01*
X586860114Y-458272571D01*
X586860114Y-458415428D01*
X587431542Y-458772571D02*
X588217257Y-458772571D01*
X587431542Y-459772571D01*
X588217257Y-459772571D01*
X589360114Y-459701142D02*
X589217257Y-459772571D01*
X588931542Y-459772571D01*
X588788685Y-459701142D01*
X588717257Y-459558285D01*
X588717257Y-458986857D01*
X588788685Y-458844000D01*
X588931542Y-458772571D01*
X589217257Y-458772571D01*
X589360114Y-458844000D01*
X589431542Y-458986857D01*
X589431542Y-459129714D01*
X588717257Y-459272571D01*
X590074400Y-459629714D02*
X590145828Y-459701142D01*
X590074400Y-459772571D01*
X590002971Y-459701142D01*
X590074400Y-459629714D01*
X590074400Y-459772571D01*
X590074400Y-458844000D02*
X590145828Y-458915428D01*
X590074400Y-458986857D01*
X590002971Y-458915428D01*
X590074400Y-458844000D01*
X590074400Y-458986857D01*
X591860114Y-459344000D02*
X592574400Y-459344000D01*
X591717257Y-459772571D02*
X592217257Y-458272571D01*
X592717257Y-459772571D01*
X593502971Y-458272571D02*
X593645828Y-458272571D01*
X593788685Y-458344000D01*
X593860114Y-458415428D01*
X593931542Y-458558285D01*
X594002971Y-458844000D01*
X594002971Y-459201142D01*
X593931542Y-459486857D01*
X593860114Y-459629714D01*
X593788685Y-459701142D01*
X593645828Y-459772571D01*
X593502971Y-459772571D01*
X593360114Y-459701142D01*
X593288685Y-459629714D01*
X593217257Y-459486857D01*
X593145828Y-459201142D01*
X593145828Y-458844000D01*
X593217257Y-458558285D01*
X593288685Y-458415428D01*
X593360114Y-458344000D01*
X593502971Y-458272571D01*
D10*
D11*
X670431542Y-462572571D02*
X670431542Y-461072571D01*
X671788685Y-462572571D02*
X671788685Y-461072571D01*
X671788685Y-462501142D02*
X671645828Y-462572571D01*
X671360114Y-462572571D01*
X671217257Y-462501142D01*
X671145828Y-462429714D01*
X671074400Y-462286857D01*
X671074400Y-461858285D01*
X671145828Y-461715428D01*
X671217257Y-461644000D01*
X671360114Y-461572571D01*
X671645828Y-461572571D01*
X671788685Y-461644000D01*
X672502971Y-462429714D02*
X672574400Y-462501142D01*
X672502971Y-462572571D01*
X672431542Y-462501142D01*
X672502971Y-462429714D01*
X672502971Y-462572571D01*
X672502971Y-461644000D02*
X672574400Y-461715428D01*
X672502971Y-461786857D01*
X672431542Y-461715428D01*
X672502971Y-461644000D01*
X672502971Y-461786857D01*
X675145828Y-462572571D02*
X674288685Y-462572571D01*
X674717257Y-462572571D02*
X674717257Y-461072571D01*
X674574400Y-461286857D01*
X674431542Y-461429714D01*
X674288685Y-461501142D01*
X676860114Y-461001142D02*
X675574400Y-462929714D01*
X678145828Y-462572571D02*
X677288685Y-462572571D01*
X677717257Y-462572571D02*
X677717257Y-461072571D01*
X677574400Y-461286857D01*
X677431542Y-461429714D01*
X677288685Y-461501142D01*
D10*
D11*
X583999400Y-453494000D02*
X691999400Y-453494000D01*
D10*
D13*
X585711780Y-454198761D02*
X586854638Y-454198761D01*
X586033209Y-456198761D02*
X586283209Y-454198761D01*
X587271304Y-456198761D02*
X587437971Y-454865428D01*
X587521304Y-454198761D02*
X587414161Y-454294000D01*
X587497495Y-454389238D01*
X587604638Y-454294000D01*
X587521304Y-454198761D01*
X587497495Y-454389238D01*
X588104638Y-454865428D02*
X588866542Y-454865428D01*
X588473685Y-454198761D02*
X588259400Y-455913047D01*
X588330828Y-456103523D01*
X588509400Y-456198761D01*
X588699876Y-456198761D01*
X589652257Y-456198761D02*
X589473685Y-456103523D01*
X589402257Y-455913047D01*
X589616542Y-454198761D01*
X591187971Y-456103523D02*
X590985590Y-456198761D01*
X590604638Y-456198761D01*
X590426066Y-456103523D01*
X590354638Y-455913047D01*
X590449876Y-455151142D01*
X590568923Y-454960666D01*
X590771304Y-454865428D01*
X591152257Y-454865428D01*
X591330828Y-454960666D01*
X591402257Y-455151142D01*
X591378447Y-455341619D01*
X590402257Y-455532095D01*
X592152257Y-456008285D02*
X592235590Y-456103523D01*
X592128447Y-456198761D01*
X592045114Y-456103523D01*
X592152257Y-456008285D01*
X592128447Y-456198761D01*
X592283209Y-454960666D02*
X592366542Y-455055904D01*
X592259400Y-455151142D01*
X592176066Y-455055904D01*
X592283209Y-454960666D01*
X592259400Y-455151142D01*
D10*
D11*
X585931542Y-451586857D02*
X585431542Y-451586857D01*
X585431542Y-452372571D02*
X585431542Y-450872571D01*
X586145828Y-450872571D01*
X586717257Y-452372571D02*
X586717257Y-451372571D01*
X586717257Y-450872571D02*
X586645828Y-450944000D01*
X586717257Y-451015428D01*
X586788685Y-450944000D01*
X586717257Y-450872571D01*
X586717257Y-451015428D01*
X587645828Y-452372571D02*
X587502971Y-452301142D01*
X587431542Y-452158285D01*
X587431542Y-450872571D01*
X588788685Y-452301142D02*
X588645828Y-452372571D01*
X588360114Y-452372571D01*
X588217257Y-452301142D01*
X588145828Y-452158285D01*
X588145828Y-451586857D01*
X588217257Y-451444000D01*
X588360114Y-451372571D01*
X588645828Y-451372571D01*
X588788685Y-451444000D01*
X588860114Y-451586857D01*
X588860114Y-451729714D01*
X588145828Y-451872571D01*
X589502971Y-452229714D02*
X589574400Y-452301142D01*
X589502971Y-452372571D01*
X589431542Y-452301142D01*
X589502971Y-452229714D01*
X589502971Y-452372571D01*
X589502971Y-451444000D02*
X589574400Y-451515428D01*
X589502971Y-451586857D01*
X589431542Y-451515428D01*
X589502971Y-451444000D01*
X589502971Y-451586857D01*
X592217257Y-452229714D02*
X592145828Y-452301142D01*
X591931542Y-452372571D01*
X591788685Y-452372571D01*
X591574400Y-452301142D01*
X591431542Y-452158285D01*
X591360114Y-452015428D01*
X591288685Y-451729714D01*
X591288685Y-451515428D01*
X591360114Y-451229714D01*
X591431542Y-451086857D01*
X591574400Y-450944000D01*
X591788685Y-450872571D01*
X591931542Y-450872571D01*
X592145828Y-450944000D01*
X592217257Y-451015428D01*
X592860114Y-452372571D02*
X592860114Y-450872571D01*
X593360114Y-451944000D01*
X593860114Y-450872571D01*
X593860114Y-452372571D01*
X595217257Y-451372571D02*
X595217257Y-452372571D01*
X594860114Y-450801142D02*
X594502971Y-451872571D01*
X595431542Y-451872571D01*
X595645828Y-452515428D02*
X596788685Y-452515428D01*
X597074400Y-451015428D02*
X597145828Y-450944000D01*
X597288685Y-450872571D01*
X597645828Y-450872571D01*
X597788685Y-450944000D01*
X597860114Y-451015428D01*
X597931542Y-451158285D01*
X597931542Y-451301142D01*
X597860114Y-451515428D01*
X597002971Y-452372571D01*
X597931542Y-452372571D01*
X598574400Y-452229714D02*
X598645828Y-452301142D01*
X598574400Y-452372571D01*
X598502971Y-452301142D01*
X598574400Y-452229714D01*
X598574400Y-452372571D01*
X599288685Y-452372571D02*
X599288685Y-450872571D01*
X599431542Y-451801142D02*
X599860114Y-452372571D01*
X599860114Y-451372571D02*
X599288685Y-451944000D01*
X600502971Y-452372571D02*
X600502971Y-451372571D01*
X600502971Y-450872571D02*
X600431542Y-450944000D01*
X600502971Y-451015428D01*
X600574400Y-450944000D01*
X600502971Y-450872571D01*
X600502971Y-451015428D01*
X601860114Y-452301142D02*
X601717257Y-452372571D01*
X601431542Y-452372571D01*
X601288685Y-452301142D01*
X601217257Y-452229714D01*
X601145828Y-452086857D01*
X601145828Y-451658285D01*
X601217257Y-451515428D01*
X601288685Y-451444000D01*
X601431542Y-451372571D01*
X601717257Y-451372571D01*
X601860114Y-451444000D01*
X603145828Y-452372571D02*
X603145828Y-451586857D01*
X603074400Y-451444000D01*
X602931542Y-451372571D01*
X602645828Y-451372571D01*
X602502971Y-451444000D01*
X603145828Y-452301142D02*
X603002971Y-452372571D01*
X602645828Y-452372571D01*
X602502971Y-452301142D01*
X602431542Y-452158285D01*
X602431542Y-452015428D01*
X602502971Y-451872571D01*
X602645828Y-451801142D01*
X603002971Y-451801142D01*
X603145828Y-451729714D01*
X604502971Y-452372571D02*
X604502971Y-450872571D01*
X604502971Y-452301142D02*
X604360114Y-452372571D01*
X604074400Y-452372571D01*
X603931542Y-452301142D01*
X603860114Y-452229714D01*
X603788685Y-452086857D01*
X603788685Y-451658285D01*
X603860114Y-451515428D01*
X603931542Y-451444000D01*
X604074400Y-451372571D01*
X604360114Y-451372571D01*
X604502971Y-451444000D01*
X604860114Y-452515428D02*
X606002971Y-452515428D01*
X606360114Y-451372571D02*
X606360114Y-452872571D01*
X606360114Y-451444000D02*
X606502971Y-451372571D01*
X606788685Y-451372571D01*
X606931542Y-451444000D01*
X607002971Y-451515428D01*
X607074400Y-451658285D01*
X607074400Y-452086857D01*
X607002971Y-452229714D01*
X606931542Y-452301142D01*
X606788685Y-452372571D01*
X606502971Y-452372571D01*
X606360114Y-452301142D01*
X608360114Y-452301142D02*
X608217257Y-452372571D01*
X607931542Y-452372571D01*
X607788685Y-452301142D01*
X607717257Y-452229714D01*
X607645828Y-452086857D01*
X607645828Y-451658285D01*
X607717257Y-451515428D01*
X607788685Y-451444000D01*
X607931542Y-451372571D01*
X608217257Y-451372571D01*
X608360114Y-451444000D01*
X609002971Y-452372571D02*
X609002971Y-450872571D01*
X609002971Y-451444000D02*
X609145828Y-451372571D01*
X609431542Y-451372571D01*
X609574400Y-451444000D01*
X609645828Y-451515428D01*
X609717257Y-451658285D01*
X609717257Y-452086857D01*
X609645828Y-452229714D01*
X609574400Y-452301142D01*
X609431542Y-452372571D01*
X609145828Y-452372571D01*
X609002971Y-452301142D01*
D10*
D11*
X583999400Y-447494000D02*
X691999400Y-447494000D01*
D10*
D11*
X585360114Y-449601142D02*
X585574400Y-449672571D01*
X585931542Y-449672571D01*
X586074400Y-449601142D01*
X586145828Y-449529714D01*
X586217257Y-449386857D01*
X586217257Y-449244000D01*
X586145828Y-449101142D01*
X586074400Y-449029714D01*
X585931542Y-448958285D01*
X585645828Y-448886857D01*
X585502971Y-448815428D01*
X585431542Y-448744000D01*
X585360114Y-448601142D01*
X585360114Y-448458285D01*
X585431542Y-448315428D01*
X585502971Y-448244000D01*
X585645828Y-448172571D01*
X586002971Y-448172571D01*
X586217257Y-448244000D01*
X586860114Y-449672571D02*
X586860114Y-448172571D01*
X587502971Y-449672571D02*
X587502971Y-448886857D01*
X587431542Y-448744000D01*
X587288685Y-448672571D01*
X587074400Y-448672571D01*
X586931542Y-448744000D01*
X586860114Y-448815428D01*
X588788685Y-449601142D02*
X588645828Y-449672571D01*
X588360114Y-449672571D01*
X588217257Y-449601142D01*
X588145828Y-449458285D01*
X588145828Y-448886857D01*
X588217257Y-448744000D01*
X588360114Y-448672571D01*
X588645828Y-448672571D01*
X588788685Y-448744000D01*
X588860114Y-448886857D01*
X588860114Y-449029714D01*
X588145828Y-449172571D01*
X590074400Y-449601142D02*
X589931542Y-449672571D01*
X589645828Y-449672571D01*
X589502971Y-449601142D01*
X589431542Y-449458285D01*
X589431542Y-448886857D01*
X589502971Y-448744000D01*
X589645828Y-448672571D01*
X589931542Y-448672571D01*
X590074400Y-448744000D01*
X590145828Y-448886857D01*
X590145828Y-449029714D01*
X589431542Y-449172571D01*
X590574400Y-448672571D02*
X591145828Y-448672571D01*
X590788685Y-448172571D02*
X590788685Y-449458285D01*
X590860114Y-449601142D01*
X591002971Y-449672571D01*
X591145828Y-449672571D01*
X591645828Y-449529714D02*
X591717257Y-449601142D01*
X591645828Y-449672571D01*
X591574400Y-449601142D01*
X591645828Y-449529714D01*
X591645828Y-449672571D01*
X591645828Y-448744000D02*
X591717257Y-448815428D01*
X591645828Y-448886857D01*
X591574400Y-448815428D01*
X591645828Y-448744000D01*
X591645828Y-448886857D01*
D10*
D12*
D10*
D11*
D10*
D11*
D10*
D11*
D10*
D11*
D10*
D11*
X603999400Y-457494000D02*
X603999400Y-460494000D01*
D10*
D11*
X667999400Y-457494000D02*
X667999400Y-463994000D01*
X15046428Y15297572D02*
X14284523Y15297572D01*
X14665476Y14916620D02*
X14665476Y15678524D01*
X13903571Y15916620D02*
X13284523Y15916620D01*
X13617857Y15535667D01*
X13475000Y15535667D01*
X13379761Y15488048D01*
X13332142Y15440429D01*
X13284523Y15345191D01*
X13284523Y15107096D01*
X13332142Y15011858D01*
X13379761Y14964239D01*
X13475000Y14916620D01*
X13760714Y14916620D01*
X13855952Y14964239D01*
X13903571Y15011858D01*
X12855952Y15011858D02*
X12808333Y14964239D01*
X12855952Y14916620D01*
X12903571Y14964239D01*
X12855952Y15011858D01*
X12855952Y14916620D01*
X12475000Y15916620D02*
X11855952Y15916620D01*
X12189285Y15535667D01*
X12046428Y15535667D01*
X11951190Y15488048D01*
X11903571Y15440429D01*
X11855952Y15345191D01*
X11855952Y15107096D01*
X11903571Y15011858D01*
X11951190Y14964239D01*
X12046428Y14916620D01*
X12332142Y14916620D01*
X12427380Y14964239D01*
X12475000Y15011858D01*
D14*
X37126940Y37088620D02*
X37126940Y36374334D01*
X37174559Y36231477D01*
X37269797Y36136239D01*
X37412654Y36088620D01*
X37507892Y36088620D01*
X36698369Y36993381D02*
X36650750Y37041000D01*
X36555511Y37088620D01*
X36317416Y37088620D01*
X36222178Y37041000D01*
X36174559Y36993381D01*
X36126940Y36898143D01*
X36126940Y36802905D01*
X36174559Y36660048D01*
X36745988Y36088620D01*
X36126940Y36088620D01*
X35507892Y37088620D02*
X35412654Y37088620D01*
X35317416Y37041000D01*
X35269797Y36993381D01*
X35222178Y36898143D01*
X35174559Y36707667D01*
X35174559Y36469572D01*
X35222178Y36279096D01*
X35269797Y36183858D01*
X35317416Y36136239D01*
X35412654Y36088620D01*
X35507892Y36088620D01*
X35603130Y36136239D01*
X35650750Y36183858D01*
X35698369Y36279096D01*
X35745988Y36469572D01*
X35745988Y36707667D01*
X35698369Y36898143D01*
X35650750Y36993381D01*
X35603130Y37041000D01*
X35507892Y37088620D01*
X33984083Y36088620D02*
X33984083Y37088620D01*
X33603130Y37088620D01*
X33507892Y37041000D01*
X33460273Y36993381D01*
X33412654Y36898143D01*
X33412654Y36755286D01*
X33460273Y36660048D01*
X33507892Y36612429D01*
X33603130Y36564810D01*
X33984083Y36564810D01*
X32984083Y36088620D02*
X32984083Y37088620D01*
X32507892Y36088620D02*
X32507892Y37088620D01*
X31936464Y36088620D01*
X31936464Y37088620D01*
X31317416Y36088620D02*
X31412654Y36136239D01*
X31460273Y36183858D01*
X31507892Y36279096D01*
X31507892Y36564810D01*
X31460273Y36660048D01*
X31412654Y36707667D01*
X31317416Y36755286D01*
X31174559Y36755286D01*
X31079321Y36707667D01*
X31031702Y36660048D01*
X30984083Y36564810D01*
X30984083Y36279096D01*
X31031702Y36183858D01*
X31079321Y36136239D01*
X31174559Y36088620D01*
X31317416Y36088620D01*
X30126940Y36755286D02*
X30126940Y36088620D01*
X30555511Y36755286D02*
X30555511Y36231477D01*
X30507892Y36136239D01*
X30412654Y36088620D01*
X30269797Y36088620D01*
X30174559Y36136239D01*
X30126940Y36183858D01*
X29793607Y36755286D02*
X29412654Y36755286D01*
X29650750Y37088620D02*
X29650750Y36231477D01*
X29603130Y36136239D01*
X29507892Y36088620D01*
X29412654Y36088620D01*
X37412654Y33535286D02*
X37412654Y32868620D01*
X37412654Y33440048D02*
X37365035Y33487667D01*
X37269797Y33535286D01*
X37126940Y33535286D01*
X37031702Y33487667D01*
X36984083Y33392429D01*
X36984083Y32868620D01*
X35936464Y32868620D02*
X36269797Y33344810D01*
X36507892Y32868620D02*
X36507892Y33868620D01*
X36126940Y33868620D01*
X36031702Y33821000D01*
X35984083Y33773381D01*
X35936464Y33678143D01*
X35936464Y33535286D01*
X35984083Y33440048D01*
X36031702Y33392429D01*
X36126940Y33344810D01*
X36507892Y33344810D01*
X35507892Y32868620D02*
X35507892Y33868620D01*
X35126940Y33868620D01*
X35031702Y33821000D01*
X34984083Y33773381D01*
X34936464Y33678143D01*
X34936464Y33535286D01*
X34984083Y33440048D01*
X35031702Y33392429D01*
X35126940Y33344810D01*
X35507892Y33344810D01*
X34507892Y32868620D02*
X34507892Y33868620D01*
X34031702Y32868620D02*
X34031702Y33868620D01*
X34031702Y33487667D02*
X33936464Y33535286D01*
X33745988Y33535286D01*
X33650750Y33487667D01*
X33603130Y33440048D01*
X33555511Y33344810D01*
X33555511Y33059096D01*
X33603130Y32963858D01*
X33650750Y32916239D01*
X33745988Y32868620D01*
X33936464Y32868620D01*
X34031702Y32916239D01*
X32984083Y32868620D02*
X33079321Y32916239D01*
X33126940Y32963858D01*
X33174559Y33059096D01*
X33174559Y33344810D01*
X33126940Y33440048D01*
X33079321Y33487667D01*
X32984083Y33535286D01*
X32841226Y33535286D01*
X32745988Y33487667D01*
X32698369Y33440048D01*
X32650750Y33344810D01*
X32650750Y33059096D01*
X32698369Y32963858D01*
X32745988Y32916239D01*
X32841226Y32868620D01*
X32984083Y32868620D01*
X32079321Y32868620D02*
X32174559Y32916239D01*
X32222178Y32963858D01*
X32269797Y33059096D01*
X32269797Y33344810D01*
X32222178Y33440048D01*
X32174559Y33487667D01*
X32079321Y33535286D01*
X31936464Y33535286D01*
X31841226Y33487667D01*
X31793607Y33440048D01*
X31745988Y33344810D01*
X31745988Y33059096D01*
X31793607Y32963858D01*
X31841226Y32916239D01*
X31936464Y32868620D01*
X32079321Y32868620D01*
X31460273Y33535286D02*
X31079321Y33535286D01*
X31317416Y33868620D02*
X31317416Y33011477D01*
X31269797Y32916239D01*
X31174559Y32868620D01*
X31079321Y32868620D01*
X37412654Y31258620D02*
X37412654Y32258620D01*
X37031702Y32258620D01*
X36936464Y32211000D01*
X36888845Y32163381D01*
X36841226Y32068143D01*
X36841226Y31925286D01*
X36888845Y31830048D01*
X36936464Y31782429D01*
X37031702Y31734810D01*
X37412654Y31734810D01*
X36269797Y31258620D02*
X36365035Y31306239D01*
X36412654Y31353858D01*
X36460273Y31449096D01*
X36460273Y31734810D01*
X36412654Y31830048D01*
X36365035Y31877667D01*
X36269797Y31925286D01*
X36126940Y31925286D01*
X36031702Y31877667D01*
X35984083Y31830048D01*
X35936464Y31734810D01*
X35936464Y31449096D01*
X35984083Y31353858D01*
X36031702Y31306239D01*
X36126940Y31258620D01*
X36269797Y31258620D01*
X35603130Y31925286D02*
X35412654Y31258620D01*
X35222178Y31734810D01*
X35031702Y31258620D01*
X34841226Y31925286D01*
X34079321Y31306239D02*
X34174559Y31258620D01*
X34365035Y31258620D01*
X34460273Y31306239D01*
X34507892Y31401477D01*
X34507892Y31782429D01*
X34460273Y31877667D01*
X34365035Y31925286D01*
X34174559Y31925286D01*
X34079321Y31877667D01*
X34031702Y31782429D01*
X34031702Y31687191D01*
X34507892Y31591953D01*
X33603130Y31258620D02*
X33603130Y31925286D01*
X33603130Y31734810D02*
X33555511Y31830048D01*
X33507892Y31877667D01*
X33412654Y31925286D01*
X33317416Y31925286D01*
X31745988Y31258620D02*
X32222178Y31258620D01*
X32222178Y32258620D01*
X31412654Y31782429D02*
X31079321Y31782429D01*
X30936464Y31258620D02*
X31412654Y31258620D01*
X31412654Y32258620D01*
X30936464Y32258620D01*
X30507892Y31258620D02*
X30507892Y32258620D01*
X30269797Y32258620D01*
X30126940Y32211000D01*
X30031702Y32115762D01*
X29984083Y32020524D01*
X29936464Y31830048D01*
X29936464Y31687191D01*
X29984083Y31496715D01*
X30031702Y31401477D01*
X30126940Y31306239D01*
X30269797Y31258620D01*
X30507892Y31258620D01*
X36888845Y30601000D02*
X36984083Y30648620D01*
X37126940Y30648620D01*
X37269797Y30601000D01*
X37365035Y30505762D01*
X37412654Y30410524D01*
X37460273Y30220048D01*
X37460273Y30077191D01*
X37412654Y29886715D01*
X37365035Y29791477D01*
X37269797Y29696239D01*
X37126940Y29648620D01*
X37031702Y29648620D01*
X36888845Y29696239D01*
X36841226Y29743858D01*
X36841226Y30077191D01*
X37031702Y30077191D01*
X36269797Y29648620D02*
X36365035Y29696239D01*
X36412654Y29791477D01*
X36412654Y30648620D01*
X35745988Y29648620D02*
X35841226Y29696239D01*
X35888845Y29743858D01*
X35936464Y29839096D01*
X35936464Y30124810D01*
X35888845Y30220048D01*
X35841226Y30267667D01*
X35745988Y30315286D01*
X35603130Y30315286D01*
X35507892Y30267667D01*
X35460273Y30220048D01*
X35412654Y30124810D01*
X35412654Y29839096D01*
X35460273Y29743858D01*
X35507892Y29696239D01*
X35603130Y29648620D01*
X35745988Y29648620D01*
X34984083Y29648620D02*
X34984083Y30648620D01*
X34984083Y30267667D02*
X34888845Y30315286D01*
X34698369Y30315286D01*
X34603130Y30267667D01*
X34555511Y30220048D01*
X34507892Y30124810D01*
X34507892Y29839096D01*
X34555511Y29743858D01*
X34603130Y29696239D01*
X34698369Y29648620D01*
X34888845Y29648620D01*
X34984083Y29696239D01*
X34317416Y29553381D02*
X33555511Y29553381D01*
X33317416Y30172429D02*
X32984083Y30172429D01*
X32841226Y29648620D02*
X33317416Y29648620D01*
X33317416Y30648620D01*
X32841226Y30648620D01*
X32412654Y29648620D02*
X32412654Y30648620D01*
X31841226Y29648620D01*
X31841226Y30648620D01*
X37412654Y28562429D02*
X37079321Y28562429D01*
X36936464Y28038620D02*
X37412654Y28038620D01*
X37412654Y29038620D01*
X36936464Y29038620D01*
X36603130Y29038620D02*
X35936464Y28038620D01*
X35936464Y29038620D02*
X36603130Y28038620D01*
X35698369Y29038620D02*
X35126940Y29038620D01*
X35412654Y28038620D02*
X35412654Y29038620D01*
X34222178Y28038620D02*
X34555511Y28514810D01*
X34793607Y28038620D02*
X34793607Y29038620D01*
X34412654Y29038620D01*
X34317416Y28991000D01*
X34269797Y28943381D01*
X34222178Y28848143D01*
X34222178Y28705286D01*
X34269797Y28610048D01*
X34317416Y28562429D01*
X34412654Y28514810D01*
X34793607Y28514810D01*
X33841226Y28086239D02*
X33698369Y28038620D01*
X33460273Y28038620D01*
X33365035Y28086239D01*
X33317416Y28133858D01*
X33269797Y28229096D01*
X33269797Y28324334D01*
X33317416Y28419572D01*
X33365035Y28467191D01*
X33460273Y28514810D01*
X33650750Y28562429D01*
X33745988Y28610048D01*
X33793607Y28657667D01*
X33841226Y28752905D01*
X33841226Y28848143D01*
X33793607Y28943381D01*
X33745988Y28991000D01*
X33650750Y29038620D01*
X33412654Y29038620D01*
X33269797Y28991000D01*
X32984083Y29038620D02*
X32412654Y29038620D01*
X32698369Y28038620D02*
X32698369Y29038620D01*
X37460273Y26714334D02*
X36984083Y26714334D01*
X37555511Y26428620D02*
X37222178Y27428620D01*
X36888845Y26428620D01*
X36555511Y27095286D02*
X36555511Y26428620D01*
X36555511Y27000048D02*
X36507892Y27047667D01*
X36412654Y27095286D01*
X36269797Y27095286D01*
X36174559Y27047667D01*
X36126940Y26952429D01*
X36126940Y26428620D01*
X35222178Y26428620D02*
X35222178Y26952429D01*
X35269797Y27047667D01*
X35365035Y27095286D01*
X35555511Y27095286D01*
X35650750Y27047667D01*
X35222178Y26476239D02*
X35317416Y26428620D01*
X35555511Y26428620D01*
X35650750Y26476239D01*
X35698369Y26571477D01*
X35698369Y26666715D01*
X35650750Y26761953D01*
X35555511Y26809572D01*
X35317416Y26809572D01*
X35222178Y26857191D01*
X34603130Y26428620D02*
X34698369Y26476239D01*
X34745988Y26571477D01*
X34745988Y27428620D01*
X34460273Y26333381D02*
X33698369Y26333381D01*
X33460273Y26428620D02*
X33460273Y27428620D01*
X33079321Y27428620D01*
X32984083Y27381000D01*
X32936464Y27333381D01*
X32888845Y27238143D01*
X32888845Y27095286D01*
X32936464Y27000048D01*
X32984083Y26952429D01*
X33079321Y26904810D01*
X33460273Y26904810D01*
X31936464Y26428620D02*
X32507892Y26428620D01*
X32222178Y26428620D02*
X32222178Y27428620D01*
X32317416Y27285762D01*
X32412654Y27190524D01*
X32507892Y27142905D01*
X37460273Y25104334D02*
X36984083Y25104334D01*
X37555511Y24818620D02*
X37222178Y25818620D01*
X36888845Y24818620D01*
X36555511Y25485286D02*
X36555511Y24818620D01*
X36555511Y25390048D02*
X36507892Y25437667D01*
X36412654Y25485286D01*
X36269797Y25485286D01*
X36174559Y25437667D01*
X36126940Y25342429D01*
X36126940Y24818620D01*
X35222178Y24818620D02*
X35222178Y25342429D01*
X35269797Y25437667D01*
X35365035Y25485286D01*
X35555511Y25485286D01*
X35650750Y25437667D01*
X35222178Y24866239D02*
X35317416Y24818620D01*
X35555511Y24818620D01*
X35650750Y24866239D01*
X35698369Y24961477D01*
X35698369Y25056715D01*
X35650750Y25151953D01*
X35555511Y25199572D01*
X35317416Y25199572D01*
X35222178Y25247191D01*
X34603130Y24818620D02*
X34698369Y24866239D01*
X34745988Y24961477D01*
X34745988Y25818620D01*
X34460273Y24723381D02*
X33698369Y24723381D01*
X33460273Y24818620D02*
X33460273Y25818620D01*
X33079321Y25818620D01*
X32984083Y25771000D01*
X32936464Y25723381D01*
X32888845Y25628143D01*
X32888845Y25485286D01*
X32936464Y25390048D01*
X32984083Y25342429D01*
X33079321Y25294810D01*
X33460273Y25294810D01*
X32269797Y25818620D02*
X32174559Y25818620D01*
X32079321Y25771000D01*
X32031702Y25723381D01*
X31984083Y25628143D01*
X31936464Y25437667D01*
X31936464Y25199572D01*
X31984083Y25009096D01*
X32031702Y24913858D01*
X32079321Y24866239D01*
X32174559Y24818620D01*
X32269797Y24818620D01*
X32365035Y24866239D01*
X32412654Y24913858D01*
X32460273Y25009096D01*
X32507892Y25199572D01*
X32507892Y25437667D01*
X32460273Y25628143D01*
X32412654Y25723381D01*
X32365035Y25771000D01*
X32269797Y25818620D01*
X36841226Y23208620D02*
X37174559Y23684810D01*
X37412654Y23208620D02*
X37412654Y24208620D01*
X37031702Y24208620D01*
X36936464Y24161000D01*
X36888845Y24113381D01*
X36841226Y24018143D01*
X36841226Y23875286D01*
X36888845Y23780048D01*
X36936464Y23732429D01*
X37031702Y23684810D01*
X37412654Y23684810D01*
X36412654Y24208620D02*
X36412654Y23399096D01*
X36365035Y23303858D01*
X36317416Y23256239D01*
X36222178Y23208620D01*
X36031702Y23208620D01*
X35936464Y23256239D01*
X35888845Y23303858D01*
X35841226Y23399096D01*
X35841226Y24208620D01*
X35365035Y23208620D02*
X35365035Y24208620D01*
X34793607Y23208620D01*
X34793607Y24208620D01*
X34555511Y23113381D02*
X33793607Y23113381D01*
X33555511Y23208620D02*
X33555511Y24208620D01*
X33174559Y24208620D01*
X33079321Y24161000D01*
X33031702Y24113381D01*
X32984083Y24018143D01*
X32984083Y23875286D01*
X33031702Y23780048D01*
X33079321Y23732429D01*
X33174559Y23684810D01*
X33555511Y23684810D01*
X32031702Y24161000D02*
X32126940Y24208620D01*
X32269797Y24208620D01*
X32412654Y24161000D01*
X32507892Y24065762D01*
X32555511Y23970524D01*
X32603130Y23780048D01*
X32603130Y23637191D01*
X32555511Y23446715D01*
X32507892Y23351477D01*
X32412654Y23256239D01*
X32269797Y23208620D01*
X32174559Y23208620D01*
X32031702Y23256239D01*
X31984083Y23303858D01*
X31984083Y23637191D01*
X32174559Y23637191D01*
D11*
X19737333Y12567000D02*
X19832571Y12614620D01*
X19975428Y12614620D01*
X20118285Y12567000D01*
X20213523Y12471762D01*
X20261142Y12376524D01*
X20308761Y12186048D01*
X20308761Y12043191D01*
X20261142Y11852715D01*
X20213523Y11757477D01*
X20118285Y11662239D01*
X19975428Y11614620D01*
X19880190Y11614620D01*
X19737333Y11662239D01*
X19689714Y11709858D01*
X19689714Y12043191D01*
X19880190Y12043191D01*
X19261142Y11614620D02*
X19261142Y12614620D01*
X18880190Y12614620D01*
X18784952Y12567000D01*
X18737333Y12519381D01*
X18689714Y12424143D01*
X18689714Y12281286D01*
X18737333Y12186048D01*
X18784952Y12138429D01*
X18880190Y12090810D01*
X19261142Y12090810D01*
X18261142Y11614620D02*
X18261142Y12614620D01*
X17594476Y12614620D02*
X17404000Y12614620D01*
X17308761Y12567000D01*
X17213523Y12471762D01*
X17165904Y12281286D01*
X17165904Y11947953D01*
X17213523Y11757477D01*
X17308761Y11662239D01*
X17404000Y11614620D01*
X17594476Y11614620D01*
X17689714Y11662239D01*
X17784952Y11757477D01*
X17832571Y11947953D01*
X17832571Y12281286D01*
X17784952Y12471762D01*
X17689714Y12567000D01*
X17594476Y12614620D01*
X16975428Y11519381D02*
X16213523Y11519381D01*
X16118285Y12614620D02*
X15784952Y11614620D01*
X15451619Y12614620D01*
X15118285Y11614620D02*
X15118285Y12281286D01*
X15118285Y12090810D02*
X15070666Y12186048D01*
X15023047Y12233667D01*
X14927809Y12281286D01*
X14832571Y12281286D01*
X14118285Y11662239D02*
X14213523Y11614620D01*
X14404000Y11614620D01*
X14499238Y11662239D01*
X14546857Y11757477D01*
X14546857Y12138429D01*
X14499238Y12233667D01*
X14404000Y12281286D01*
X14213523Y12281286D01*
X14118285Y12233667D01*
X14070666Y12138429D01*
X14070666Y12043191D01*
X14546857Y11947953D01*
X13784952Y12281286D02*
X13404000Y12281286D01*
X13642095Y11614620D02*
X13642095Y12471762D01*
X13594476Y12567000D01*
X13499238Y12614620D01*
X13404000Y12614620D01*
X10728428Y7042572D02*
X9966523Y7042572D01*
X10347476Y6661620D02*
X10347476Y7423524D01*
X8966523Y6661620D02*
X9537952Y6661620D01*
X9252238Y6661620D02*
X9252238Y7661620D01*
X9347476Y7518762D01*
X9442714Y7423524D01*
X9537952Y7375905D01*
X8537952Y6756858D02*
X8490333Y6709239D01*
X8537952Y6661620D01*
X8585571Y6709239D01*
X8537952Y6756858D01*
X8537952Y6661620D01*
X7918904Y7233048D02*
X8014142Y7280667D01*
X8061761Y7328286D01*
X8109380Y7423524D01*
X8109380Y7471143D01*
X8061761Y7566381D01*
X8014142Y7614000D01*
X7918904Y7661620D01*
X7728428Y7661620D01*
X7633190Y7614000D01*
X7585571Y7566381D01*
X7537952Y7471143D01*
X7537952Y7423524D01*
X7585571Y7328286D01*
X7633190Y7280667D01*
X7728428Y7233048D01*
X7918904Y7233048D01*
X8014142Y7185429D01*
X8061761Y7137810D01*
X8109380Y7042572D01*
X8109380Y6852096D01*
X8061761Y6756858D01*
X8014142Y6709239D01*
X7918904Y6661620D01*
X7728428Y6661620D01*
X7633190Y6709239D01*
X7585571Y6756858D01*
X7537952Y6852096D01*
X7537952Y7042572D01*
X7585571Y7137810D01*
X7633190Y7185429D01*
X7728428Y7233048D01*
X6209523Y23747620D02*
X6209523Y23033334D01*
X6257142Y22890477D01*
X6352380Y22795239D01*
X6495238Y22747620D01*
X6590476Y22747620D01*
X5780952Y23652381D02*
X5733333Y23700000D01*
X5638095Y23747620D01*
X5400000Y23747620D01*
X5304761Y23700000D01*
X5257142Y23652381D01*
X5209523Y23557143D01*
X5209523Y23461905D01*
X5257142Y23319048D01*
X5828571Y22747620D01*
X5209523Y22747620D01*
X4590476Y23747620D02*
X4495238Y23747620D01*
X4400000Y23700000D01*
X4352380Y23652381D01*
X4304761Y23557143D01*
X4257142Y23366667D01*
X4257142Y23128572D01*
X4304761Y22938096D01*
X4352380Y22842858D01*
X4400000Y22795239D01*
X4495238Y22747620D01*
X4590476Y22747620D01*
X4685714Y22795239D01*
X4733333Y22842858D01*
X4780952Y22938096D01*
X4828571Y23128572D01*
X4828571Y23366667D01*
X4780952Y23557143D01*
X4733333Y23652381D01*
X4685714Y23700000D01*
X4590476Y23747620D01*
D12*
X75607142Y13546358D02*
X74464285Y13546358D01*
X75035714Y12974929D02*
X75035714Y14117786D01*
X72964285Y12974929D02*
X73821428Y12974929D01*
X73392857Y12974929D02*
X73392857Y14474929D01*
X73535714Y14260643D01*
X73678571Y14117786D01*
X73821428Y14046358D01*
X72392857Y14332072D02*
X72321428Y14403500D01*
X72178571Y14474929D01*
X71821428Y14474929D01*
X71678571Y14403500D01*
X71607142Y14332072D01*
X71535714Y14189215D01*
X71535714Y14046358D01*
X71607142Y13832072D01*
X72464285Y12974929D01*
X71535714Y12974929D01*
X69964285Y14474929D02*
X69464285Y12974929D01*
X68964285Y14474929D01*
X67107142Y12974929D02*
X67250000Y13046358D01*
X67321428Y13117786D01*
X67392857Y13260643D01*
X67392857Y13689215D01*
X67321428Y13832072D01*
X67250000Y13903500D01*
X67107142Y13974929D01*
X66892857Y13974929D01*
X66750000Y13903500D01*
X66678571Y13832072D01*
X66607142Y13689215D01*
X66607142Y13260643D01*
X66678571Y13117786D01*
X66750000Y13046358D01*
X66892857Y12974929D01*
X67107142Y12974929D01*
X65964285Y13974929D02*
X65964285Y12974929D01*
X65964285Y13832072D02*
X65892857Y13903500D01*
X65750000Y13974929D01*
X65535714Y13974929D01*
X65392857Y13903500D01*
X65321428Y13760643D01*
X65321428Y12974929D01*
X64392857Y12974929D02*
X64535714Y13046358D01*
X64607142Y13189215D01*
X64607142Y14474929D01*
X63964285Y13974929D02*
X63607142Y12974929D01*
X63250000Y13974929D02*
X63607142Y12974929D01*
X63750000Y12617786D01*
X63821428Y12546358D01*
X63964285Y12474929D01*
X61750000Y13974929D02*
X61178571Y13974929D01*
X61535714Y12974929D02*
X61535714Y14260643D01*
X61464285Y14403500D01*
X61321428Y14474929D01*
X61178571Y14474929D01*
X60464285Y12974929D02*
X60607142Y13046358D01*
X60678571Y13117786D01*
X60750000Y13260643D01*
X60750000Y13689215D01*
X60678571Y13832072D01*
X60607142Y13903500D01*
X60464285Y13974929D01*
X60250000Y13974929D01*
X60107142Y13903500D01*
X60035714Y13832072D01*
X59964285Y13689215D01*
X59964285Y13260643D01*
X60035714Y13117786D01*
X60107142Y13046358D01*
X60250000Y12974929D01*
X60464285Y12974929D01*
X59321428Y12974929D02*
X59321428Y13974929D01*
X59321428Y13689215D02*
X59250000Y13832072D01*
X59178571Y13903500D01*
X59035714Y13974929D01*
X58892857Y13974929D01*
X57250000Y12974929D02*
X57250000Y14474929D01*
X57250000Y13760643D02*
X56392857Y13760643D01*
X56392857Y12974929D02*
X56392857Y14474929D01*
X55678571Y12974929D02*
X55678571Y14474929D01*
X55321428Y14474929D01*
X55107142Y14403500D01*
X54964285Y14260643D01*
X54892857Y14117786D01*
X54821428Y13832072D01*
X54821428Y13617786D01*
X54892857Y13332072D01*
X54964285Y13189215D01*
X55107142Y13046358D01*
X55321428Y12974929D01*
X55678571Y12974929D01*
X54178571Y12974929D02*
X54178571Y14474929D01*
X53821428Y14474929D01*
X53607142Y14403500D01*
X53464285Y14260643D01*
X53392857Y14117786D01*
X53321428Y13832072D01*
X53321428Y13617786D01*
X53392857Y13332072D01*
X53464285Y13189215D01*
X53607142Y13046358D01*
X53821428Y12974929D01*
X54178571Y12974929D01*
X76178571Y11131358D02*
X75035714Y11131358D01*
X75607142Y10559929D02*
X75607142Y11702786D01*
X74464285Y12059929D02*
X73535714Y12059929D01*
X74035714Y11488500D01*
X73821428Y11488500D01*
X73678571Y11417072D01*
X73607142Y11345643D01*
X73535714Y11202786D01*
X73535714Y10845643D01*
X73607142Y10702786D01*
X73678571Y10631358D01*
X73821428Y10559929D01*
X74250000Y10559929D01*
X74392857Y10631358D01*
X74464285Y10702786D01*
X72892857Y10702786D02*
X72821428Y10631358D01*
X72892857Y10559929D01*
X72964285Y10631358D01*
X72892857Y10702786D01*
X72892857Y10559929D01*
X72321428Y12059929D02*
X71392857Y12059929D01*
X71892857Y11488500D01*
X71678571Y11488500D01*
X71535714Y11417072D01*
X71464285Y11345643D01*
X71392857Y11202786D01*
X71392857Y10845643D01*
X71464285Y10702786D01*
X71535714Y10631358D01*
X71678571Y10559929D01*
X72107142Y10559929D01*
X72250000Y10631358D01*
X72321428Y10702786D01*
X69821428Y12059929D02*
X69321428Y10559929D01*
X68821428Y12059929D01*
X66964285Y10559929D02*
X67107142Y10631358D01*
X67178571Y10702786D01*
X67250000Y10845643D01*
X67250000Y11274215D01*
X67178571Y11417072D01*
X67107142Y11488500D01*
X66964285Y11559929D01*
X66750000Y11559929D01*
X66607142Y11488500D01*
X66535714Y11417072D01*
X66464285Y11274215D01*
X66464285Y10845643D01*
X66535714Y10702786D01*
X66607142Y10631358D01*
X66750000Y10559929D01*
X66964285Y10559929D01*
X65821428Y11559929D02*
X65821428Y10559929D01*
X65821428Y11417072D02*
X65750000Y11488500D01*
X65607142Y11559929D01*
X65392857Y11559929D01*
X65250000Y11488500D01*
X65178571Y11345643D01*
X65178571Y10559929D01*
X64250000Y10559929D02*
X64392857Y10631358D01*
X64464285Y10774215D01*
X64464285Y12059929D01*
X63821428Y11559929D02*
X63464285Y10559929D01*
X63107142Y11559929D02*
X63464285Y10559929D01*
X63607142Y10202786D01*
X63678571Y10131358D01*
X63821428Y10059929D01*
X61607142Y11559929D02*
X61035714Y11559929D01*
X61392857Y10559929D02*
X61392857Y11845643D01*
X61321428Y11988500D01*
X61178571Y12059929D01*
X61035714Y12059929D01*
X60321428Y10559929D02*
X60464285Y10631358D01*
X60535714Y10702786D01*
X60607142Y10845643D01*
X60607142Y11274215D01*
X60535714Y11417072D01*
X60464285Y11488500D01*
X60321428Y11559929D01*
X60107142Y11559929D01*
X59964285Y11488500D01*
X59892857Y11417072D01*
X59821428Y11274215D01*
X59821428Y10845643D01*
X59892857Y10702786D01*
X59964285Y10631358D01*
X60107142Y10559929D01*
X60321428Y10559929D01*
X59178571Y10559929D02*
X59178571Y11559929D01*
X59178571Y11274215D02*
X59107142Y11417072D01*
X59035714Y11488500D01*
X58892857Y11559929D01*
X58750000Y11559929D01*
X57107142Y10559929D02*
X57107142Y12059929D01*
X56535714Y12059929D01*
X56392857Y11988500D01*
X56321428Y11917072D01*
X56250000Y11774215D01*
X56250000Y11559929D01*
X56321428Y11417072D01*
X56392857Y11345643D01*
X56535714Y11274215D01*
X57107142Y11274215D01*
X54750000Y10702786D02*
X54821428Y10631358D01*
X55035714Y10559929D01*
X55178571Y10559929D01*
X55392857Y10631358D01*
X55535714Y10774215D01*
X55607142Y10917072D01*
X55678571Y11202786D01*
X55678571Y11417072D01*
X55607142Y11702786D01*
X55535714Y11845643D01*
X55392857Y11988500D01*
X55178571Y12059929D01*
X55035714Y12059929D01*
X54821428Y11988500D01*
X54750000Y11917072D01*
X54107142Y10559929D02*
X54107142Y12059929D01*
X52821428Y10631358D02*
X52964285Y10559929D01*
X53250000Y10559929D01*
X53392857Y10631358D01*
X53464285Y10774215D01*
X53464285Y11345643D01*
X53392857Y11488500D01*
X53250000Y11559929D01*
X52964285Y11559929D01*
X52821428Y11488500D01*
X52750000Y11345643D01*
X52750000Y11202786D01*
X53464285Y11059929D01*
D11*
%TO.C,J17*%
X10809523Y17484620D02*
X10809523Y16770334D01*
X10857142Y16627477D01*
X10952380Y16532239D01*
X11095238Y16484620D01*
X11190476Y16484620D01*
X9809523Y16484620D02*
X10380952Y16484620D01*
X10095238Y16484620D02*
X10095238Y17484620D01*
X10190476Y17341762D01*
X10285714Y17246524D01*
X10380952Y17198905D01*
X9476190Y17484620D02*
X8809523Y17484620D01*
X9238095Y16484620D01*
%TO.C,J4*%
X21669333Y66841620D02*
X21669333Y66127334D01*
X21716952Y65984477D01*
X21812190Y65889239D01*
X21955047Y65841620D01*
X22050285Y65841620D01*
X20764571Y66508286D02*
X20764571Y65841620D01*
X21002666Y66889239D02*
X21240761Y66174953D01*
X20621714Y66174953D01*
D15*
%TO.C,J17*%
X11330000Y8767000D02*
X11330000Y8197000D01*
X8670000Y13847000D02*
X8670000Y10287000D01*
X11330000Y15937000D02*
X8670000Y15937000D01*
X11330000Y11307000D02*
X11330000Y8197000D01*
X11330000Y15937000D02*
X11330000Y12827000D01*
X8670000Y15937000D02*
X8670000Y15367000D01*
X11330000Y8197000D02*
X8670000Y8197000D01*
X8670000Y15367000D02*
X7150000Y15367000D01*
%TO.C,J4*%
X17499000Y74744000D02*
X17499000Y72794000D01*
X15699000Y65424000D02*
X16779000Y65424000D01*
X9679000Y74744000D02*
X9679000Y72794000D01*
X17499000Y74744000D02*
X9679000Y74744000D01*
X11479000Y65424000D02*
X11479000Y64994000D01*
X10399000Y65424000D02*
X11479000Y65424000D01*
X9679000Y70574000D02*
X9679000Y67344000D01*
X17499000Y70574000D02*
X17499000Y67344000D01*
%TD*%
M02*
