M48
; DRILL file {KiCad 5.99.0-unknown-912657dd23~106~ubuntu20.04.1} date Mon Dec 28 23:19:35 2020
; FORMAT={-:-/ absolute / inch / decimal}
; #@! TF.CreationDate,2020-12-28T23:19:35+03:00
; #@! TF.GenerationSoftware,Kicad,Pcbnew,5.99.0-unknown-912657dd23~106~ubuntu20.04.1
; #@! TF.FileFunction,Plated,1,4,PTH
FMAT,2
INCH
T1C0.0177
T2C0.0354
T3C0.0362
T4C0.0394
T5C0.0630
T6C0.0906
%
G90
G05
T1
X0.205Y1.94
X0.345Y0.765
X0.345Y0.725
X0.3607Y1.0586
X0.385Y0.765
X0.385Y0.725
X0.395Y0.87
X0.4Y2.24
X0.4Y1.365
X0.4Y1.185
X0.415Y1.93
X0.43Y0.765
X0.43Y0.725
X0.44Y1.83
X0.44Y0.995
X0.445Y1.09
X0.46Y2.21
X0.63Y2.225
X0.72Y1.015
X0.775Y1.015
X0.795Y0.735
X0.8254Y2.2625
X0.835Y1.015
X0.8967Y1.7448
X0.9309Y1.7134
X0.96Y2.15
X0.995Y2.41
X1.65Y1.52
X1.7203Y1.4123
X1.777Y1.24
X2.2835Y1.075
X2.2835Y1.015
X2.3228Y1.075
X2.3228Y1.015
X2.3622Y1.075
X2.3622Y1.015
X2.4016Y1.075
X2.4016Y1.015
X2.5855Y1.3361
X2.64Y1.2818
X2.64Y1.05
X3.0293Y1.415
X3.0709Y0.5906
X3.0709Y0.5315
X3.1102Y0.4724
X3.1496Y0.5906
X3.1496Y0.5315
X3.1543Y1.5193
X3.189Y0.4724
X3.2283Y0.5906
X3.2283Y0.5315
T2
X1.1Y2.3
X1.15Y2.4
X1.2Y2.3
X1.25Y2.4
X1.3Y2.3
X1.35Y2.4
X1.4Y2.3
X1.45Y2.4
T3
X1.9744Y2.45
X2.0728Y2.45
X2.1516Y2.45
X2.25Y2.45
T4
X0.1Y1.75
X0.1Y1.65
X0.1Y1.55
X0.1Y1.45
X0.1Y1.35
X0.1Y1.25
X0.1Y1.0
X0.1Y0.9
X0.1Y0.8
X0.1Y0.7
X0.1Y0.6
X0.1Y0.5
X0.1Y0.4
X0.36Y0.35
X0.36Y0.25
X0.36Y0.15
X0.395Y1.27
X0.395Y0.56
X2.195Y2.095
X2.295Y2.095
X2.3Y0.3
X2.3Y0.15
X2.4Y0.3
X2.4Y0.15
X2.445Y2.095
X2.5Y0.3
X2.5Y0.15
X2.5441Y2.828
X2.5441Y2.728
X2.5441Y2.628
X2.5441Y2.528
X2.595Y2.095
X2.6Y0.3
X2.6Y0.15
X2.695Y2.095
T5
X0.9691Y2.7701
X1.5809Y2.7701
T6
X1.8535Y2.5567
X2.3709Y2.5567
T2
G00X2.6791Y2.7689
M15
G01X2.6791Y2.8004
M16
G05
G00X2.6791Y2.5146
M15
G01X2.6791Y2.5854
M16
G05
G00X3.25Y2.7689
M15
G01X3.25Y2.8004
M16
G05
G00X3.25Y2.5146
M15
G01X3.25Y2.5854
M16
G05
T0
M30
