M48
; DRILL file {KiCad 5.99.0-unknown-912657dd23~106~ubuntu20.04.1} date Sun Jan  3 01:57:49 2021
; FORMAT={-:-/ absolute / inch / decimal}
; #@! TF.CreationDate,2021-01-03T01:57:49+03:00
; #@! TF.GenerationSoftware,Kicad,Pcbnew,5.99.0-unknown-912657dd23~106~ubuntu20.04.1
; #@! TF.FileFunction,Plated,1,4,PTH
FMAT,2
INCH
T1C0.0177
T2C0.0354
T3C0.0362
T4C0.0394
T5C0.0630
T6C0.0906
T7C0.1260
%
G90
G05
T1
X0.1907Y0.9966
X0.2098Y0.3726
X0.3417Y2.1413
X0.345Y0.765
X0.345Y0.725
X0.3464Y0.9063
X0.385Y0.765
X0.385Y0.725
X0.392Y1.042
X0.394Y1.185
X0.394Y1.116
X0.403Y1.484
X0.413Y2.24
X0.43Y0.765
X0.43Y0.725
X0.4605Y0.3751
X0.462Y1.306
X0.518Y1.859
X0.523Y1.479
X0.578Y0.69
X0.5809Y1.1952
X0.5809Y1.1404
X0.5809Y1.0579
X0.5809Y0.9805
X0.584Y0.91
X0.584Y0.847
X0.63Y2.225
X0.672Y1.68
X0.714Y1.596
X0.72Y1.015
X0.7275Y0.8793
X0.732Y1.158
X0.7342Y0.8149
X0.7385Y2.4098
X0.772Y1.23
X0.78Y1.015
X0.782Y1.514
X0.7904Y0.7352
X0.8254Y2.2625
X0.827Y1.571
X0.8334Y0.7352
X0.835Y1.015
X0.8455Y0.6651
X0.886Y1.894
X0.933Y1.718
X0.94Y1.082
X0.944Y1.77
X0.96Y2.15
X0.9843Y0.8858
X0.9843Y0.7874
X0.995Y2.41
X1.054Y1.816
X1.07Y1.68
X1.0827Y0.9843
X1.0827Y0.8858
X1.0827Y0.7874
X1.086Y2.096
X1.1811Y0.9843
X1.1811Y0.8858
X1.1811Y0.7874
X1.21Y1.973
X1.322Y2.102
X1.34Y1.495
X1.4Y1.595
X1.496Y2.126
X1.54Y1.505
X1.6Y2.015
X1.65Y1.52
X1.6535Y0.9055
X1.6535Y0.6693
X1.6929Y0.8268
X1.7203Y1.4123
X1.7323Y0.748
X1.7717Y0.9055
X1.7717Y0.6693
X1.775Y1.32
X1.776Y1.1939
X1.7871Y1.1004
X1.9144Y1.3578
X1.918Y1.1938
X1.918Y1.0996
X1.918Y0.9109
X1.918Y0.7688
X1.918Y0.6735
X1.94Y1.594
X2.0759Y1.0981
X2.0759Y0.97
X2.0759Y0.9096
X2.2835Y1.075
X2.2835Y1.015
X2.306Y1.47
X2.3228Y1.075
X2.3228Y1.015
X2.324Y1.692
X2.3622Y1.075
X2.3622Y1.015
X2.4016Y1.075
X2.4016Y1.015
X2.4396Y1.6994
X2.4516Y1.4803
X2.4959Y1.8584
X2.5812Y1.4803
X2.584Y1.952
X2.595Y1.32
X2.598Y1.198
X2.64Y1.2818
X2.64Y1.05
X2.654Y1.786
X2.6772Y0.7874
X2.716Y0.864
X2.7165Y0.9449
X2.744Y1.93
X2.754Y1.678
X3.0293Y1.415
X3.0709Y0.5906
X3.0709Y0.5315
X3.1102Y0.4724
X3.1117Y2.393
X3.112Y2.1256
X3.1121Y2.2442
X3.1429Y1.5196
X3.1496Y0.5906
X3.1496Y0.5315
X3.189Y1.3386
X3.189Y1.2598
X3.189Y0.4724
X3.2283Y1.4173
X3.2283Y1.1811
X3.2283Y0.5906
X3.2283Y0.5315
X3.2677Y1.3386
X3.2677Y1.2598
T2
X1.1Y2.3
X1.15Y2.4
X1.2Y2.3
X1.25Y2.4
X1.3Y2.3
X1.35Y2.4
X1.4Y2.3
X1.45Y2.4
T3
X1.9744Y2.45
X2.0728Y2.45
X2.1516Y2.45
X2.25Y2.45
T4
X0.1Y1.0
X0.1Y0.9
X0.1Y0.8
X0.1Y0.7
X0.1Y0.6
X0.1Y0.5
X0.1Y0.4
X0.1024Y1.75
X0.1024Y1.65
X0.1024Y1.55
X0.1024Y1.45
X0.1024Y1.35
X0.1024Y1.25
X0.1024Y1.15
X0.395Y1.3101
X2.195Y2.095
X2.295Y2.095
X2.3Y0.3
X2.3Y0.15
X2.4Y0.3
X2.4Y0.15
X2.445Y2.095
X2.5Y0.3
X2.5Y0.15
X2.5441Y2.828
X2.5441Y2.728
X2.5441Y2.628
X2.5441Y2.528
X2.595Y2.095
X2.6Y0.3
X2.6Y0.15
X2.695Y2.095
T5
X0.9691Y2.7701
X1.5809Y2.7701
T6
X1.8535Y2.5567
X2.3709Y2.5567
T7
X3.291Y0.8761
X3.2911Y1.8274
T2
G00X2.6791Y2.7689
M15
G01X2.6791Y2.8004
M16
G05
G00X2.6791Y2.5146
M15
G01X2.6791Y2.5854
M16
G05
G00X3.25Y2.7689
M15
G01X3.25Y2.8004
M16
G05
G00X3.25Y2.5146
M15
G01X3.25Y2.5854
M16
G05
T0
M30
